<?xml version="1.0" encoding="UTF-8"?>
<svg version="1.1" xmlns="http://www.w3.org/2000/svg" width="1024" height="1024">
<path d="M0 0 C337.92 0 675.84 0 1024 0 C1024 337.92 1024 675.84 1024 1024 C686.08 1024 348.16 1024 0 1024 C0 686.08 0 348.16 0 0 Z " fill="#0B0B0B" transform="translate(0,0)"/>
<path d="M0 0 C0.99529724 -0.00807175 1.99059448 -0.01614349 3.01605225 -0.02445984 C5.11354895 -0.03819581 7.21106702 -0.04896408 9.30859375 -0.05688477 C11.404366 -0.06832387 13.50011101 -0.08864501 15.59570312 -0.1184082 C54.44934527 -0.66758713 95.35784407 8.70134097 124.421875 35.98828125 C126.90526347 38.44180934 128.32806761 40.42944978 129.87890625 43.59375 C131.7739455 47.41670856 133.62127567 50.81547396 137.234375 53.23828125 C142.7580072 54.74821808 148.55126955 54.30514103 154.2265625 54.22265625 C161.90462295 54.12171576 169.39479597 55.01428379 176.984375 56.05078125 C177.64657043 56.13941437 178.30876587 56.22804749 178.99102783 56.31936646 C190.17879814 57.82599805 201.23580508 59.69813534 212.234375 62.23828125 C213.41 62.49867188 214.585625 62.7590625 215.796875 63.02734375 C265.63357884 75.146724 311.54451008 102.19716011 339.234375 146.23828125 C359.18954893 179.71753907 363.62119395 220.66298509 354.234375 258.23828125 C349.16543197 276.71314633 342.24672028 294.31792033 333.234375 311.23828125 C332.78449219 312.08455078 332.33460938 312.93082031 331.87109375 313.80273438 C324.01663545 328.36856699 314.75440642 341.71423165 303.42993164 353.80712891 C301.43342534 356.01787168 299.63399829 358.2790947 297.83203125 360.6484375 C292.75875714 367.02976627 287.04882301 372.72436659 281.2722168 378.46118164 C279.4284831 380.29421151 277.59567062 382.13767196 275.76367188 383.98242188 C268.89227778 390.86150636 261.87422298 397.21288559 254.234375 403.23828125 C253.19451829 404.11270282 252.15938341 404.99283091 251.1328125 405.8828125 C243.57643458 412.37474709 235.58009401 418.05923851 227.39599609 423.72363281 C225.34879142 425.15810964 223.32919423 426.62321852 221.31640625 428.10546875 C176.4728972 460.93852176 121.25722921 487.85601108 67.234375 501.23828125 C66.34347168 501.46515625 65.45256836 501.69203125 64.53466797 501.92578125 C58.45659856 503.46747135 52.35840049 504.89153294 46.234375 506.23828125 C45.3676416 506.4305127 44.5009082 506.62274414 43.60791016 506.82080078 C33.11972569 509.11976729 22.98160394 510.79965953 12.234375 511.23828125 C11.75403809 510.38862793 11.27370117 509.53897461 10.77880859 508.66357422 C5.94541522 500.14266344 0.95988614 491.72696196 -4.140625 483.36328125 C-4.88695731 482.13595104 -5.633213 480.90857423 -6.37939453 479.68115234 C-10.79481158 472.42629915 -15.23942041 465.1901783 -19.81005859 458.03173828 C-22.02950641 454.53133469 -23.97109794 450.97405771 -25.765625 447.23828125 C-19.03930709 444.54121575 -12.21163282 442.68285622 -5.203125 440.86328125 C9.17796273 437.07098261 9.17796273 437.07098261 23.234375 432.23828125 C24.23766846 431.86179443 25.24096191 431.48530762 26.2746582 431.09741211 C30.21163978 428.62441741 30.47174937 426.8201841 31.54296875 422.3515625 C31.71523987 421.66635529 31.88751099 420.98114807 32.06500244 420.275177 C32.62283498 418.03853088 33.14691679 415.79534708 33.671875 413.55078125 C34.24735617 411.21266839 34.83140028 408.87679452 35.41560364 406.54084778 C35.80537662 404.9790589 36.19224667 403.4165427 36.57621765 401.85331726 C38.16554636 395.40012971 39.99259544 389.03551931 41.921875 382.67578125 C44.59390853 373.74318606 46.84842779 364.75704882 48.96118164 355.67724609 C50.72723216 348.1561144 52.73225105 340.72731437 54.859375 333.30078125 C57.28207735 324.83474246 59.43914784 316.38652746 61.21484375 307.76171875 C62.48511068 301.85203318 64.12797693 296.03387985 65.70559692 290.20062256 C66.53580345 287.11965413 67.34928923 284.03429879 68.1640625 280.94921875 C71.49369868 268.38372561 74.8433324 255.83024496 78.50732422 243.35693359 C79.76811924 239.36491436 79.76811924 239.36491436 80.234375 235.23828125 C79.61433594 235.83253906 78.99429687 236.42679688 78.35546875 237.0390625 C65.4547097 249.11357206 50.81362913 258.68312526 36.08154297 268.36621094 C33.14060834 270.29993472 30.20513633 272.24179094 27.26953125 274.18359375 C17.10496255 280.88594429 6.95888507 287.46116515 -3.765625 293.23828125 C-4.4663916 293.62338867 -5.1671582 294.00849609 -5.88916016 294.40527344 C-29.45949382 307.33271413 -53.58117106 318.80517672 -79.765625 325.23828125 C-83.83913056 341.7173903 -87.82471666 358.20359039 -91.390625 374.80078125 C-93.59682395 385.06664811 -95.96433581 395.27187078 -98.5690918 405.44458008 C-100.43072493 412.7619784 -102.09530246 420.11127549 -103.703125 427.48828125 C-105.99319818 437.97999433 -108.51649978 448.39568129 -111.15332031 458.80517578 C-115.71434745 476.86492387 -119.76994214 495.04617224 -123.765625 513.23828125 C-128.07326401 511.65983197 -130.4966026 508.35302654 -133.328125 504.92578125 C-134.11703125 503.98798828 -134.11703125 503.98798828 -134.921875 503.03125 C-136.01202924 501.73456773 -137.0994152 500.43555327 -138.18408203 499.13427734 C-140.08696044 496.85305572 -142.00531576 494.58530022 -143.92602539 492.3190918 C-144.82334274 491.26020172 -145.71965575 490.20045977 -146.61499023 489.13989258 C-149.50839809 485.71314722 -152.42263421 482.30512882 -155.34814453 478.90576172 C-160.1514123 473.32399661 -164.88645446 467.69885884 -169.52734375 461.98046875 C-172.8774355 457.87616786 -176.28977588 453.82458068 -179.69921875 449.76953125 C-183.79827978 444.74837521 -183.79827978 444.74837521 -183.62011719 441.96533203 C-183.43610352 441.0886084 -183.25208984 440.21188477 -183.0625 439.30859375 C-182.86076172 438.32665039 -182.65902344 437.34470703 -182.45117188 436.33300781 C-182.22494141 435.31174805 -181.99871094 434.29048828 -181.765625 433.23828125 C-181.55486328 432.27116211 -181.34410156 431.30404297 -181.12695312 430.30761719 C-180.44257077 427.23805065 -179.73290222 424.17532268 -179.015625 421.11328125 C-178.75394531 419.98873535 -178.49226563 418.86418945 -178.22265625 417.70556641 C-174.77961718 402.95115557 -171.28665648 388.20879385 -167.56494141 373.52197266 C-163.67317328 358.15864413 -160.20115387 342.70888761 -156.765625 327.23828125 C-159.53482592 325.12844844 -162.29465774 323.32241766 -165.328125 321.61328125 C-176.16307657 315.13137474 -184.52806628 306.64346901 -192.765625 297.23828125 C-193.44882813 296.46871094 -194.13203125 295.69914062 -194.8359375 294.90625 C-195.98455504 293.60597517 -197.1260255 292.2993256 -198.2578125 290.984375 C-199.26687514 289.81584909 -200.29326642 288.66207582 -201.3359375 287.5234375 C-202.765625 285.92578125 -202.765625 285.92578125 -204.765625 283.23828125 C-204.435625 282.24828125 -204.105625 281.25828125 -203.765625 280.23828125 C-203.17617599 280.14249786 -202.58672699 280.04671448 -201.97941589 279.94802856 C-195.79768108 278.94331031 -189.61618267 277.93714695 -183.43481445 276.93017578 C-181.13344147 276.55546236 -178.83201015 276.18110708 -176.53051758 275.80712891 C-173.2063856 275.26691244 -169.88247144 274.72537234 -166.55859375 274.18359375 C-165.5435527 274.01892609 -164.52851166 273.85425842 -163.48271179 273.68460083 C-156.89619633 272.60935495 -150.32758057 271.45439851 -143.765625 270.23828125 C-143.64950867 269.40665466 -143.53339233 268.57502808 -143.41375732 267.71820068 C-142.24424391 259.47302108 -140.55079161 251.40181273 -138.65325928 243.30181885 C-138.12390695 241.04190859 -137.60059928 238.78066539 -137.07861328 236.51904297 C-136.34508198 233.34353522 -135.60924024 230.16857877 -134.87109375 226.99414062 C-133.11758588 219.45282518 -131.37366886 211.909326 -129.640625 204.36328125 C-129.47294617 203.6337323 -129.30526733 202.90418335 -129.13250732 202.15252686 C-126.62593308 191.22681382 -124.29562202 180.2741432 -122.06518555 169.28833008 C-119.9966083 159.1777101 -117.74846461 149.11203703 -115.453125 139.05078125 C-115.27595947 138.27041504 -115.09879395 137.49004883 -114.91625977 136.68603516 C-114.41469311 134.48007721 -113.90929749 132.27503793 -113.40234375 130.0703125 C-113.11061279 128.79905518 -112.81888184 127.52779785 -112.51831055 126.21801758 C-111.765625 123.23828125 -111.765625 123.23828125 -110.765625 121.23828125 C-131.56471749 126.55450707 -150.66256696 132.49498569 -169.04296875 143.8671875 C-169.94144531 144.31964844 -170.83992188 144.77210938 -171.765625 145.23828125 C-175.08271855 144.1325834 -175.35999391 143.75966245 -177.11328125 140.94921875 C-177.76562744 139.92006348 -177.76562744 139.92006348 -178.43115234 138.87011719 C-179.12265381 137.7529834 -179.12265381 137.7529834 -179.828125 136.61328125 C-180.82057555 135.04231186 -181.81408434 133.47201057 -182.80859375 131.90234375 C-183.30665527 131.1124707 -183.8047168 130.32259766 -184.31787109 129.50878906 C-186.36703521 126.29509155 -188.50262603 123.14320809 -190.640625 119.98828125 C-194.56200653 114.16173709 -198.27856115 108.2230303 -201.953125 102.23828125 C-206.82168691 94.31038069 -211.80740695 86.46787214 -216.890625 78.67578125 C-217.5302417 77.69416016 -218.1698584 76.71253906 -218.82885742 75.70117188 C-221.99278562 70.78336791 -221.99278562 70.78336791 -225.52294922 66.13305664 C-226.13807373 65.19514282 -226.13807373 65.19514282 -226.765625 64.23828125 C-226.435625 63.24828125 -226.105625 62.25828125 -225.765625 61.23828125 C-223.12838938 59.9620981 -220.5635132 58.89186086 -217.828125 57.86328125 C-216.96711182 57.52949463 -216.10609863 57.19570801 -215.21899414 56.85180664 C-213.22781971 56.08250862 -211.23438247 55.3190531 -209.23925781 54.56005859 C-206.0532462 53.34772609 -202.87129931 52.12546851 -199.69052124 50.89950562 C-190.99183569 47.54694764 -182.28121806 44.2264363 -173.56445312 40.92120361 C-172.01232762 40.33194152 -170.46115107 39.74018099 -168.91015625 39.14794922 C-138.96114463 27.72164401 -108.17917332 17.55600047 -76.81054688 10.88720703 C-73.45418688 10.17190837 -70.10240027 9.43674647 -66.75 8.703125 C-44.75974361 3.95650275 -22.55167096 0.180874 0 0 Z " fill="#681FCE" transform="translate(446.765625,251.76171875)"/>
<path d="M0 0 C3.62202754 -0.00218458 7.24374874 -0.02039871 10.86572266 -0.03930664 C30.05845643 -0.08561917 48.61459172 1.11432016 67.39306641 5.18530273 C69.01462646 5.52754883 69.01462646 5.52754883 70.66894531 5.87670898 C97.26500009 11.541046 121.43780962 19.38253918 143.83056641 35.24780273 C144.69911255 35.8625647 144.69911255 35.8625647 145.58520508 36.48974609 C148.21575986 38.40628774 150.54499388 40.34540901 152.78759766 42.70874023 C160.56658139 50.68123103 169.20573602 50.57168486 179.74072266 51.47827148 C214.52020722 54.47783703 248.85978401 63.08304651 280.39306641 78.18530273 C281.77574625 78.823611 283.15855537 79.46163932 284.54150391 80.09936523 C301.7029637 88.18320615 317.06140867 98.82096108 331.39306641 111.18530273 C332.03783936 111.73653809 332.6826123 112.28777344 333.34692383 112.85571289 C344.64837688 122.60787296 355.40740921 133.24406076 364.39306641 145.18530273 C365.18841797 146.22557617 365.98376953 147.26584961 366.80322266 148.33764648 C373.61406878 157.43420675 379.14453438 167.12139234 384.39306641 177.18530273 C385.00923828 178.35061523 385.62541016 179.51592773 386.26025391 180.71655273 C394.46382266 197.19929917 400.87097216 215.9204589 403.39306641 234.18530273 C403.54098633 235.19318848 403.54098633 235.19318848 403.69189453 236.22143555 C408.25746129 267.96504595 405.73685281 303.79458166 395.39306641 334.18530273 C395.10866699 335.04607422 394.82426758 335.9068457 394.53125 336.79370117 C375.88670442 392.8117873 338.9147825 446.0877029 293.60791016 484.30639648 C291.78097379 485.8562314 289.99223957 487.43317249 288.20947266 489.03295898 C279.40495829 496.88162975 270.18039327 503.85834868 260.54492188 510.65063477 C257.91831224 512.5238896 255.34041936 514.45692081 252.76171875 516.39526367 C244.44124214 522.62606124 235.74608707 528.16719586 226.90527344 533.6262207 C224.37917572 535.19392333 221.86748107 536.78270713 219.35791016 538.37670898 C207.31145508 545.99134632 194.98958411 552.94356785 182.38964844 559.59887695 C179.46549444 561.14695848 176.551786 562.71331916 173.63916016 564.28295898 C154.53297538 574.50746497 134.95827027 583.34682167 114.38525391 590.17651367 C110.81440455 591.38039337 107.2599464 592.62920983 103.70556641 593.88061523 C76.22150641 603.53582834 48.68365808 611.51835849 19.39306641 613.18530273 C18.48669434 613.24153809 17.58032227 613.29777344 16.64648438 613.35571289 C-0.88251515 614.29116582 -14.21587958 610.86474759 -27.86865234 599.26342773 C-32.10861943 595.31860267 -35.38308444 591.21320752 -38.38037109 586.25952148 C-38.72108139 585.69754059 -39.06179169 585.13555969 -39.41282654 584.55654907 C-43.64133981 577.53923308 -47.65862963 570.39978105 -51.68237305 563.26391602 C-55.7060086 556.13644392 -59.83214346 549.12550862 -64.35473633 542.29907227 C-65.60693359 540.18530273 -65.60693359 540.18530273 -65.60693359 538.18530273 C-66.26693359 538.18530273 -66.92693359 538.18530273 -67.60693359 538.18530273 C-67.78482422 539.84239258 -67.78482422 539.84239258 -67.96630859 541.53295898 C-70.74016241 563.6122534 -76.07955622 591.21037095 -93.88818359 606.09155273 C-104.70129849 614.16717019 -115.55943438 616.38345812 -128.73193359 616.49780273 C-129.82248047 616.52680664 -130.91302734 616.55581055 -132.03662109 616.58569336 C-148.19525329 616.71132866 -159.43701167 608.11027023 -170.60693359 597.18530273 C-177.19297254 590.45675629 -183.30682649 583.40794081 -189.19677734 576.06420898 C-192.05096576 572.654911 -195.05977354 569.42156969 -198.10693359 566.18530273 C-202.84425616 561.15228253 -207.31588688 556.01884391 -211.63427734 550.61889648 C-213.37739551 548.46847545 -215.18076135 546.41808573 -217.04443359 544.37280273 C-230.38946406 529.19670995 -241.71637374 510.71509828 -240.99755859 489.81811523 C-239.30674416 474.09354103 -234.80229922 458.70921187 -230.87216187 443.42933655 C-230.08235181 440.35447493 -229.29820205 437.27818345 -228.51489258 434.20166016 C-228.11544123 432.63939431 -227.71306044 431.07787478 -227.30786133 429.51708984 C-222.64040373 415.24906189 -222.64040373 415.24906189 -223.48901367 401.01074219 C-224.80814504 398.85586241 -226.25566538 396.95141712 -227.85693359 394.99780273 C-228.97304203 393.53542379 -230.08758903 392.071852 -231.20068359 390.60717773 C-231.77044922 389.87563477 -232.34021484 389.1440918 -232.92724609 388.39038086 C-235.55311796 384.9431607 -237.94469764 381.34602614 -240.35693359 377.74780273 C-243.34569 373.33630913 -246.40559867 369.12889564 -249.85693359 365.06030273 C-260.39018767 352.22967226 -263.46592733 338.77302183 -262.43505859 322.46655273 C-260.91234081 310.42983123 -254.33811056 298.48409187 -245.44287109 290.36889648 C-234.42983577 281.88916267 -223.11389246 277.88727972 -209.54443359 275.49780273 C-208.4282666 275.29997192 -208.4282666 275.29997192 -207.28955078 275.09814453 C-202.00551437 274.23550407 -196.96029416 274.07388492 -191.60693359 274.18530273 C-191.49623535 273.61610107 -191.38553711 273.04689941 -191.27148438 272.46044922 C-190.76142916 269.84727871 -190.2467153 267.23504609 -189.73193359 264.62280273 C-189.55791016 263.72754883 -189.38388672 262.83229492 -189.20458984 261.90991211 C-188.21729879 256.91860732 -187.08932105 252.05314262 -185.60693359 247.18530273 C-186.92693359 247.18530273 -188.24693359 247.18530273 -189.60693359 247.18530273 C-200.33301176 246.11575078 -212.60919635 239.30979428 -219.60693359 231.18530273 C-225.70261842 223.50473986 -230.82914485 215.33141203 -235.72241211 206.84692383 C-239.30141109 200.64609198 -243.08684952 194.59504672 -246.93457031 188.55810547 C-249.60503745 184.3639012 -252.24775146 180.15655615 -254.83740234 175.91186523 C-260.01761297 167.4281187 -265.2684321 159.10909408 -271.10693359 151.06030273 C-275.45202282 145.03086554 -279.0651098 139.21941103 -281.60693359 132.18530273 C-281.99494141 131.20819336 -282.38294922 130.23108398 -282.78271484 129.22436523 C-287.02846475 117.40629848 -287.46480897 104.61857255 -282.86865234 92.82983398 C-280.8480078 88.59461307 -278.5297459 84.85481892 -275.60693359 81.18530273 C-275.12869141 80.58202148 -274.65044922 79.97874023 -274.15771484 79.35717773 C-258.10344766 61.40227942 -226.43062954 52.4941638 -204.60693359 44.18530273 C-203.39175049 43.7210791 -202.17656738 43.25685547 -200.92456055 42.77856445 C-191.72878639 39.28550127 -182.4698408 36.00218805 -173.16040039 32.82543945 C-170.9090181 32.05674655 -168.65928347 31.28336776 -166.40966797 30.50952148 C-155.02691733 26.60597732 -143.58940184 22.93167591 -131.98193359 19.74780273 C-130.83930054 19.43431885 -130.83930054 19.43431885 -129.67358398 19.11450195 C-128.08901765 18.68106357 -126.5041389 18.24876567 -124.91894531 17.81762695 C-122.74053799 17.2218429 -120.56624443 16.61279245 -118.39208984 16.00170898 C-97.28979578 10.15896014 -75.76691847 5.58257317 -54.04443359 2.81030273 C-52.82852539 2.65489014 -51.61261719 2.49947754 -50.35986328 2.33935547 C-33.55942703 0.3272102 -16.90280112 -0.00113793 0 0 Z M-63.56445312 55.5324707 C-66.61379694 56.18677542 -69.66855886 56.80290209 -72.72802734 57.40795898 C-104.8041986 63.78971349 -136.00121 73.73698309 -166.60693359 85.18530273 C-167.29352051 85.44158447 -167.98010742 85.69786621 -168.6875 85.96191406 C-188.76090762 93.45554165 -208.76316822 101.10028039 -228.60693359 109.18530273 C-228.60693359 113.69669692 -227.90972323 114.71208987 -225.45068359 118.34936523 C-224.76586914 119.37602295 -224.08105469 120.40268066 -223.37548828 121.46044922 C-223.00629272 122.00547089 -222.63709717 122.55049255 -222.25671387 123.11203003 C-220.28590406 126.02299709 -218.34522519 128.95390149 -216.40380859 131.88452148 C-216.00301086 132.48839188 -215.60221313 133.09226227 -215.18927002 133.71443176 C-211.0866646 139.92184899 -207.2164479 146.26147075 -203.35693359 152.62280273 C-197.23788087 162.67402765 -190.80952339 172.44141449 -184.06298828 182.08032227 C-181.52629541 185.74755331 -179.06675997 189.46624074 -176.60693359 193.18530273 C-172.44718019 191.9343404 -169.07858797 190.38443328 -165.41943359 188.06030273 C-149.2362018 178.51279022 -131.74384578 173.67015914 -113.60693359 169.18530273 C-113.79231689 169.77013428 -113.9777002 170.35496582 -114.16870117 170.95751953 C-116.21666411 177.57656172 -117.82635145 184.22899822 -119.29443359 190.99780273 C-119.54644531 192.14506836 -119.79845703 193.29233398 -120.05810547 194.47436523 C-120.91318679 198.37683276 -121.76145993 202.28074543 -122.60693359 206.18530273 C-122.84117035 207.26687653 -122.84117035 207.26687653 -123.08013916 208.37030029 C-124.60598491 215.41845509 -126.12852762 222.46732243 -127.64916992 229.51660156 C-129.56880461 238.41171594 -131.50355695 247.30302527 -133.48193359 256.18530273 C-133.70703613 257.19657227 -133.93213867 258.2078418 -134.1640625 259.24975586 C-135.38448625 264.72396947 -136.60935661 270.19716977 -137.83740234 275.66967773 C-138.98944357 280.80386209 -140.13828981 285.93875469 -141.28570557 291.07397461 C-141.74816953 293.1406497 -142.21182463 295.20705863 -142.67669678 297.27319336 C-143.33081635 300.18075691 -143.98099907 303.08917576 -144.63037109 305.99780273 C-144.83005493 306.88089111 -145.02973877 307.76397949 -145.23547363 308.67382812 C-145.41654663 309.48843506 -145.59761963 310.30304199 -145.78417969 311.14233398 C-145.94373138 311.85365479 -146.10328308 312.56497559 -146.26766968 313.29785156 C-146.69538955 315.35779947 -146.69538955 315.35779947 -146.60693359 318.18530273 C-156.39001942 320.03296233 -166.21570287 321.60427366 -176.04443359 323.18530273 C-179.27237202 323.70567892 -182.50021395 324.22665162 -185.72802734 324.74780273 C-186.88158218 324.93391113 -186.88158218 324.93391113 -188.05844116 325.1237793 C-194.24480853 326.12323281 -200.4272902 327.14503599 -206.60693359 328.18530273 C-206.60693359 333.1628375 -205.54573459 333.75844447 -202.16943359 337.24780273 C-201.23981023 338.22455822 -200.31278292 339.20379015 -199.38818359 340.18530273 C-198.91896484 340.68288086 -198.44974609 341.18045898 -197.96630859 341.69311523 C-195.91156749 343.9486069 -194.05139782 346.34761647 -192.16943359 348.74780273 C-183.133882 359.87947526 -172.43576534 367.91134852 -159.60693359 374.18530273 C-163.02513894 390.40798538 -166.8114017 406.5257692 -170.74267578 422.63110352 C-172.06831076 428.08268376 -173.36736587 433.54055655 -174.66943359 438.99780273 C-176.65414284 447.30430115 -178.70616987 455.5917793 -180.79443359 463.87280273 C-182.42695275 470.3823809 -184.05559302 476.89117168 -185.54443359 483.43530273 C-185.78033203 484.47170898 -186.01623047 485.50811523 -186.25927734 486.57592773 C-186.73459072 490.14344832 -186.32578001 492.08442788 -184.36474609 495.08764648 C-183.82591797 495.75924805 -183.28708984 496.43084961 -182.73193359 497.12280273 C-182.10029297 497.91041992 -181.46865234 498.69803711 -180.81787109 499.50952148 C-176.93458685 504.20925595 -172.99857206 508.86227547 -169.04199219 513.50024414 C-167.196086 515.66772365 -165.35974879 517.84319076 -163.5234375 520.01879883 C-159.20187321 525.13828627 -154.85156736 530.23179878 -150.48193359 535.31030273 C-146.86372671 539.51685951 -143.29634579 543.75574513 -139.79443359 548.06030273 C-137.1113794 551.35314197 -134.42255512 554.63816819 -131.66943359 557.87280273 C-131.12416016 558.51604492 -130.57888672 559.15928711 -130.01708984 559.82202148 C-128.69418128 561.41698821 -128.69418128 561.41698821 -126.60693359 561.18530273 C-126.42630371 560.3719043 -126.24567383 559.55850586 -126.05957031 558.72045898 C-119.97626808 531.38979221 -119.97626808 531.38979221 -116.60693359 518.18530273 C-114.31199302 509.17564954 -112.19997305 500.13304513 -110.16943359 491.06030273 C-110.02361847 490.4089032 -109.87780334 489.75750366 -109.72756958 489.08636475 C-109.58149261 488.43371643 -109.43541565 487.78106812 -109.28491211 487.10864258 C-108.98865726 485.78522633 -108.69235181 484.4618214 -108.39599609 483.13842773 C-108.17504524 482.15170578 -108.17504524 482.15170578 -107.94963074 481.14505005 C-104.14010095 464.16744453 -100.11479316 447.23878606 -96.02563477 430.32666016 C-93.15553667 418.39968165 -90.42104462 406.44102075 -87.67773438 394.484375 C-87.39541458 393.25553085 -87.39541458 393.25553085 -87.10739136 392.00186157 C-86.75506351 390.46790452 -86.40338782 388.93379746 -86.05252075 387.39950562 C-85.73320464 386.0093803 -85.40715713 384.62078002 -85.07363892 383.23399353 C-84.75106061 381.81797537 -84.47001767 380.39208604 -84.22299194 378.96095276 C-83.80859375 376.79663086 -83.80859375 376.79663086 -82.60693359 373.18530273 C-80.31054688 371.68554688 -80.31054688 371.68554688 -77.42724609 370.97045898 C-76.3638501 370.68211182 -75.3004541 370.39376465 -74.20483398 370.09667969 C-73.05877686 369.81655029 -71.91271973 369.5364209 -70.73193359 369.24780273 C-68.33464228 368.58584333 -65.94010053 367.91384976 -63.54833984 367.23217773 C-61.76967529 366.72654297 -61.76967529 366.72654297 -59.95507812 366.21069336 C-52.78528182 364.0148975 -46.10190726 360.78455448 -39.36816406 357.52026367 C-36.20934823 355.99308374 -33.03555882 354.49944381 -29.86083984 353.00561523 C-8.58182563 342.94572634 10.80785891 331.14847585 30.39306641 318.18530273 C31.86413957 317.21742759 33.33544949 316.24991207 34.80712891 315.28295898 C38.35512638 312.9451953 41.88068543 310.57620337 45.39306641 308.18530273 C46.06595703 307.72881348 46.73884766 307.27232422 47.43212891 306.80200195 C56.66459199 300.50923905 65.37022611 293.89980208 73.73291016 286.48608398 C76.39306641 284.18530273 76.39306641 284.18530273 78.39306641 283.18530273 C77.97347656 284.4653418 77.97347656 284.4653418 77.54541016 285.77124023 C71.71804494 303.94662372 67.02927168 322.44611928 62.45629883 340.97045898 C60.87599461 347.34501046 59.1560487 353.65166526 57.31103516 359.95483398 C56.14544696 364.05671245 55.11879612 368.1874045 54.09912109 372.32763672 C52.45625256 378.98094254 50.74058478 385.61471595 49.01806641 392.24780273 C48.75018311 393.27993896 48.4822998 394.3120752 48.20629883 395.37548828 C46.82676314 400.68470808 45.44442161 405.99303663 44.04711914 411.29760742 C43.54880376 413.19367436 43.05085145 415.08983674 42.55322266 416.98608398 C42.29664383 417.96351059 42.040065 418.94093719 41.77571106 419.94798279 C40.15709042 426.15120997 38.61046503 432.3679336 37.11322021 438.60151672 C36.09924899 442.79240991 35.0477502 446.97341037 33.99047852 451.15356445 C33.46016366 453.28637041 32.94623288 455.42330711 32.44750977 457.5637207 C28.28775714 475.32323032 28.28775714 475.32323032 23.93969727 479.59643555 C21.05904986 480.9737653 18.53106242 481.62576893 15.39306641 482.18530273 C13.41986238 482.78968983 11.44981179 483.40446019 9.48291016 484.02905273 C7.43455658 484.59007622 5.38367931 485.14195464 3.33056641 485.68530273 C1.71214844 486.12749146 1.71214844 486.12749146 0.06103516 486.57861328 C-4.11950531 487.71940798 -8.30551794 488.83897778 -12.49316406 489.95336914 C-14.23942322 490.41855467 -15.98500093 490.88630938 -17.72973633 491.35717773 C-19.28056003 491.77510537 -20.83340594 492.18562052 -22.38842773 492.58764648 C-24.14518771 493.06016438 -25.8796009 493.61451334 -27.60693359 494.18530273 C-27.93693359 494.84530273 -28.26693359 495.50530273 -28.60693359 496.18530273 C-27.41146291 498.47790204 -26.16412372 500.62399219 -24.79443359 502.81030273 C-24.17592529 503.81891357 -24.17592529 503.81891357 -23.54492188 504.84790039 C-20.32609276 510.08138359 -17.04690078 515.277995 -13.77514648 520.47851562 C-9.67730615 527.01798909 -5.70180339 533.63007485 -1.73193359 540.24780273 C-0.76779541 541.85437744 -0.76779541 541.85437744 0.21582031 543.4934082 C3.32926988 548.69449817 6.41301542 553.9065692 9.39306641 559.18530273 C42.90907101 558.51498264 77.41921562 546.83532996 108.20556641 534.37280273 C109.18177444 533.97970917 109.18177444 533.97970917 110.17770386 533.57867432 C119.94428862 529.6443579 129.66136721 525.62133914 139.21630859 521.19360352 C140.74323409 520.48631299 142.2727701 519.78464384 143.80419922 519.0871582 C158.12676818 512.55507328 171.80424512 505.12182088 185.39306641 497.18530273 C186.27945801 496.67177246 187.16584961 496.15824219 188.07910156 495.62915039 C199.19228361 489.1770714 209.85522238 482.31009637 220.24267578 474.74584961 C222.50716075 473.10250403 224.78461074 471.47845329 227.06494141 469.85717773 C235.41757743 463.90360199 243.57836103 457.8385151 251.39306641 451.18530273 C252.39982422 450.36288086 253.40658203 449.54045898 254.44384766 448.69311523 C263.5617721 441.13595244 271.94667164 432.84757307 280.33056641 424.49780273 C280.91660645 423.91693909 281.50264648 423.33607544 282.10644531 422.73760986 C288.35806984 416.52953312 294.34150975 410.31370618 299.73608398 403.328125 C301.18158971 401.45878601 302.66911908 399.666117 304.22900391 397.89233398 C339.47986184 357.70635594 358.78957184 303.44429161 355.39306641 250.18530273 C351.72763204 213.2179827 330.57271818 178.06031974 302.25244141 154.54467773 C281.20008991 137.4563593 258.78483858 126.16294375 233.23022461 117.19775391 C230.91710648 116.37230851 228.64130959 115.49571442 226.36181641 114.58374023 C221.08180999 112.59352588 215.5810758 111.45728681 210.08056641 110.24780273 C208.32595093 109.85975464 208.32595093 109.85975464 206.53588867 109.46386719 C193.91859447 106.75180148 181.19495889 104.79383208 168.39306641 103.18530273 C167.12233276 103.02300171 167.12233276 103.02300171 165.82592773 102.85742188 C161.32605974 102.34008737 156.94294904 102.1558994 152.41259766 102.22045898 C136.1279054 102.38709064 136.1279054 102.38709064 131.59619141 99.24780273 C129.88711181 96.64349097 128.67218547 94.02212201 127.39306641 91.18530273 C106.21854227 63.9200371 71.54747072 53.48565067 38.75170898 48.64819336 C33.8686278 48.05608995 29.01026159 48.005663 24.09619141 47.98217773 C22.62832939 47.97165627 22.62832939 47.97165627 21.1308136 47.96092224 C17.96818433 47.94342998 14.80574235 47.93706467 11.64306641 47.93530273 C10.02354568 47.93429062 10.02354568 47.93429062 8.37130737 47.93325806 C-16.19949871 47.95766667 -39.53148601 50.29920643 -63.56445312 55.5324707 Z " fill="#0C0C0C" transform="translate(449.60693359375,203.814697265625)"/>
<path d="M0 0 C0.99529724 -0.00807175 1.99059448 -0.01614349 3.01605225 -0.02445984 C5.11354895 -0.03819581 7.21106702 -0.04896408 9.30859375 -0.05688477 C11.404366 -0.06832387 13.50011101 -0.08864501 15.59570312 -0.1184082 C54.44934527 -0.66758713 95.35784407 8.70134097 124.421875 35.98828125 C137.8312094 50.06391798 146.01546915 67.47166332 150.234375 86.23828125 C150.41395752 87.00084229 150.59354004 87.76340332 150.77856445 88.54907227 C156.52230358 122.43621019 145.78758171 156.34986063 126.359375 183.92578125 C124.34606729 186.71828006 122.29849602 189.48319301 120.234375 192.23828125 C119.77804687 192.85300293 119.32171875 193.46772461 118.8515625 194.10107422 C111.63510926 203.76785094 103.61407469 212.57258499 95.234375 221.23828125 C94.70134766 221.79322266 94.16832031 222.34816406 93.61914062 222.91992188 C87.73149304 229.02918731 81.66845697 234.74197949 75.01171875 240.0234375 C72.04920431 242.38594901 69.17769531 244.83953425 66.296875 247.30078125 C60.55079365 252.09410618 54.51623008 256.18772865 48.234375 260.23828125 C46.56176431 261.35534625 44.88926679 262.47258942 43.21972656 263.59423828 C39.90002463 265.82209908 36.56748767 268.03055273 33.234375 270.23828125 C32.34685547 270.82625488 31.45933594 271.41422852 30.54492188 272.02001953 C19.30143014 279.45296344 8.1077345 286.84229897 -3.765625 293.23828125 C-4.4663916 293.62338867 -5.1671582 294.00849609 -5.88916016 294.40527344 C-29.45949382 307.33271413 -53.58117106 318.80517672 -79.765625 325.23828125 C-83.83913056 341.7173903 -87.82471666 358.20359039 -91.390625 374.80078125 C-93.59682395 385.06664811 -95.96433581 395.27187078 -98.5690918 405.44458008 C-100.43072493 412.7619784 -102.09530246 420.11127549 -103.703125 427.48828125 C-105.99319818 437.97999433 -108.51649978 448.39568129 -111.15332031 458.80517578 C-115.71434745 476.86492387 -119.76994214 495.04617224 -123.765625 513.23828125 C-128.07326401 511.65983197 -130.4966026 508.35302654 -133.328125 504.92578125 C-134.11703125 503.98798828 -134.11703125 503.98798828 -134.921875 503.03125 C-136.01202924 501.73456773 -137.0994152 500.43555327 -138.18408203 499.13427734 C-140.08696044 496.85305572 -142.00531576 494.58530022 -143.92602539 492.3190918 C-144.82334274 491.26020172 -145.71965575 490.20045977 -146.61499023 489.13989258 C-149.50839809 485.71314722 -152.42263421 482.30512882 -155.34814453 478.90576172 C-160.1514123 473.32399661 -164.88645446 467.69885884 -169.52734375 461.98046875 C-172.8774355 457.87616786 -176.28977588 453.82458068 -179.69921875 449.76953125 C-183.79827978 444.74837521 -183.79827978 444.74837521 -183.62011719 441.96533203 C-183.43610352 441.0886084 -183.25208984 440.21188477 -183.0625 439.30859375 C-182.86076172 438.32665039 -182.65902344 437.34470703 -182.45117188 436.33300781 C-182.22494141 435.31174805 -181.99871094 434.29048828 -181.765625 433.23828125 C-181.55486328 432.27116211 -181.34410156 431.30404297 -181.12695312 430.30761719 C-180.44257077 427.23805065 -179.73290222 424.17532268 -179.015625 421.11328125 C-178.75394531 419.98873535 -178.49226563 418.86418945 -178.22265625 417.70556641 C-174.77961718 402.95115557 -171.28665648 388.20879385 -167.56494141 373.52197266 C-163.67317328 358.15864413 -160.20115387 342.70888761 -156.765625 327.23828125 C-159.53482592 325.12844844 -162.29465774 323.32241766 -165.328125 321.61328125 C-176.16307657 315.13137474 -184.52806628 306.64346901 -192.765625 297.23828125 C-193.44882813 296.46871094 -194.13203125 295.69914062 -194.8359375 294.90625 C-195.98455504 293.60597517 -197.1260255 292.2993256 -198.2578125 290.984375 C-199.26687514 289.81584909 -200.29326642 288.66207582 -201.3359375 287.5234375 C-202.765625 285.92578125 -202.765625 285.92578125 -204.765625 283.23828125 C-204.435625 282.24828125 -204.105625 281.25828125 -203.765625 280.23828125 C-203.17617599 280.14249786 -202.58672699 280.04671448 -201.97941589 279.94802856 C-195.79768108 278.94331031 -189.61618267 277.93714695 -183.43481445 276.93017578 C-181.13344147 276.55546236 -178.83201015 276.18110708 -176.53051758 275.80712891 C-173.2063856 275.26691244 -169.88247144 274.72537234 -166.55859375 274.18359375 C-165.5435527 274.01892609 -164.52851166 273.85425842 -163.48271179 273.68460083 C-156.89619633 272.60935495 -150.32758057 271.45439851 -143.765625 270.23828125 C-143.64950867 269.40665466 -143.53339233 268.57502808 -143.41375732 267.71820068 C-142.24424391 259.47302108 -140.55079161 251.40181273 -138.65325928 243.30181885 C-138.12390695 241.04190859 -137.60059928 238.78066539 -137.07861328 236.51904297 C-136.34508198 233.34353522 -135.60924024 230.16857877 -134.87109375 226.99414062 C-133.11758588 219.45282518 -131.37366886 211.909326 -129.640625 204.36328125 C-129.47294617 203.6337323 -129.30526733 202.90418335 -129.13250732 202.15252686 C-126.62593308 191.22681382 -124.29562202 180.2741432 -122.06518555 169.28833008 C-119.9966083 159.1777101 -117.74846461 149.11203703 -115.453125 139.05078125 C-115.27595947 138.27041504 -115.09879395 137.49004883 -114.91625977 136.68603516 C-114.41469311 134.48007721 -113.90929749 132.27503793 -113.40234375 130.0703125 C-113.11061279 128.79905518 -112.81888184 127.52779785 -112.51831055 126.21801758 C-111.765625 123.23828125 -111.765625 123.23828125 -110.765625 121.23828125 C-131.56471749 126.55450707 -150.66256696 132.49498569 -169.04296875 143.8671875 C-169.94144531 144.31964844 -170.83992188 144.77210938 -171.765625 145.23828125 C-175.08271855 144.1325834 -175.35999391 143.75966245 -177.11328125 140.94921875 C-177.76562744 139.92006348 -177.76562744 139.92006348 -178.43115234 138.87011719 C-179.12265381 137.7529834 -179.12265381 137.7529834 -179.828125 136.61328125 C-180.82057555 135.04231186 -181.81408434 133.47201057 -182.80859375 131.90234375 C-183.30665527 131.1124707 -183.8047168 130.32259766 -184.31787109 129.50878906 C-186.36703521 126.29509155 -188.50262603 123.14320809 -190.640625 119.98828125 C-194.56200653 114.16173709 -198.27856115 108.2230303 -201.953125 102.23828125 C-206.82168691 94.31038069 -211.80740695 86.46787214 -216.890625 78.67578125 C-217.5302417 77.69416016 -218.1698584 76.71253906 -218.82885742 75.70117188 C-221.99278562 70.78336791 -221.99278562 70.78336791 -225.52294922 66.13305664 C-226.13807373 65.19514282 -226.13807373 65.19514282 -226.765625 64.23828125 C-226.435625 63.24828125 -226.105625 62.25828125 -225.765625 61.23828125 C-223.12838938 59.9620981 -220.5635132 58.89186086 -217.828125 57.86328125 C-216.96711182 57.52949463 -216.10609863 57.19570801 -215.21899414 56.85180664 C-213.22781971 56.08250862 -211.23438247 55.3190531 -209.23925781 54.56005859 C-206.0532462 53.34772609 -202.87129931 52.12546851 -199.69052124 50.89950562 C-190.99183569 47.54694764 -182.28121806 44.2264363 -173.56445312 40.92120361 C-172.01232762 40.33194152 -170.46115107 39.74018099 -168.91015625 39.14794922 C-138.96114463 27.72164401 -108.17917332 17.55600047 -76.81054688 10.88720703 C-73.45418688 10.17190837 -70.10240027 9.43674647 -66.75 8.703125 C-44.75974361 3.95650275 -22.55167096 0.180874 0 0 Z " fill="#F1F1F1" transform="translate(446.765625,251.76171875)"/>
<path d="M0 0 C3.62202754 -0.00218458 7.24374874 -0.02039871 10.86572266 -0.03930664 C30.05845643 -0.08561917 48.61459172 1.11432016 67.39306641 5.18530273 C69.01462646 5.52754883 69.01462646 5.52754883 70.66894531 5.87670898 C97.26500009 11.541046 121.43780962 19.38253918 143.83056641 35.24780273 C144.69911255 35.8625647 144.69911255 35.8625647 145.58520508 36.48974609 C148.21575986 38.40628774 150.54499388 40.34540901 152.78759766 42.70874023 C160.56658139 50.68123103 169.20573602 50.57168486 179.74072266 51.47827148 C214.52020722 54.47783703 248.85978401 63.08304651 280.39306641 78.18530273 C281.77574625 78.823611 283.15855537 79.46163932 284.54150391 80.09936523 C301.7029637 88.18320615 317.06140867 98.82096108 331.39306641 111.18530273 C332.03783936 111.73653809 332.6826123 112.28777344 333.34692383 112.85571289 C344.64837688 122.60787296 355.40740921 133.24406076 364.39306641 145.18530273 C365.18841797 146.22557617 365.98376953 147.26584961 366.80322266 148.33764648 C373.61406878 157.43420675 379.14453438 167.12139234 384.39306641 177.18530273 C385.00923828 178.35061523 385.62541016 179.51592773 386.26025391 180.71655273 C394.46382266 197.19929917 400.87097216 215.9204589 403.39306641 234.18530273 C403.54098633 235.19318848 403.54098633 235.19318848 403.69189453 236.22143555 C408.25746129 267.96504595 405.73685281 303.79458166 395.39306641 334.18530273 C395.10866699 335.04607422 394.82426758 335.9068457 394.53125 336.79370117 C375.88670442 392.8117873 338.9147825 446.0877029 293.60791016 484.30639648 C291.78097379 485.8562314 289.99223957 487.43317249 288.20947266 489.03295898 C279.40495829 496.88162975 270.18039327 503.85834868 260.54492188 510.65063477 C257.91831224 512.5238896 255.34041936 514.45692081 252.76171875 516.39526367 C244.44124214 522.62606124 235.74608707 528.16719586 226.90527344 533.6262207 C224.37917572 535.19392333 221.86748107 536.78270713 219.35791016 538.37670898 C207.31145508 545.99134632 194.98958411 552.94356785 182.38964844 559.59887695 C179.46549444 561.14695848 176.551786 562.71331916 173.63916016 564.28295898 C154.53297538 574.50746497 134.95827027 583.34682167 114.38525391 590.17651367 C110.81440455 591.38039337 107.2599464 592.62920983 103.70556641 593.88061523 C76.22150641 603.53582834 48.68365808 611.51835849 19.39306641 613.18530273 C18.48669434 613.24153809 17.58032227 613.29777344 16.64648438 613.35571289 C-0.88251515 614.29116582 -14.21587958 610.86474759 -27.86865234 599.26342773 C-32.10861943 595.31860267 -35.38308444 591.21320752 -38.38037109 586.25952148 C-38.72108139 585.69754059 -39.06179169 585.13555969 -39.41282654 584.55654907 C-43.64133981 577.53923308 -47.65862963 570.39978105 -51.68237305 563.26391602 C-55.7060086 556.13644392 -59.83214346 549.12550862 -64.35473633 542.29907227 C-65.60693359 540.18530273 -65.60693359 540.18530273 -65.60693359 538.18530273 C-66.26693359 538.18530273 -66.92693359 538.18530273 -67.60693359 538.18530273 C-67.78482422 539.84239258 -67.78482422 539.84239258 -67.96630859 541.53295898 C-70.74016241 563.6122534 -76.07955622 591.21037095 -93.88818359 606.09155273 C-104.70129849 614.16717019 -115.55943438 616.38345812 -128.73193359 616.49780273 C-129.82248047 616.52680664 -130.91302734 616.55581055 -132.03662109 616.58569336 C-148.19525329 616.71132866 -159.43701167 608.11027023 -170.60693359 597.18530273 C-177.19297254 590.45675629 -183.30682649 583.40794081 -189.19677734 576.06420898 C-192.05096576 572.654911 -195.05977354 569.42156969 -198.10693359 566.18530273 C-202.84425616 561.15228253 -207.31588688 556.01884391 -211.63427734 550.61889648 C-213.37739551 548.46847545 -215.18076135 546.41808573 -217.04443359 544.37280273 C-230.38946406 529.19670995 -241.71637374 510.71509828 -240.99755859 489.81811523 C-239.30674416 474.09354103 -234.80229922 458.70921187 -230.87216187 443.42933655 C-230.08235181 440.35447493 -229.29820205 437.27818345 -228.51489258 434.20166016 C-228.11544123 432.63939431 -227.71306044 431.07787478 -227.30786133 429.51708984 C-222.64040373 415.24906189 -222.64040373 415.24906189 -223.48901367 401.01074219 C-224.80814504 398.85586241 -226.25566538 396.95141712 -227.85693359 394.99780273 C-228.97304203 393.53542379 -230.08758903 392.071852 -231.20068359 390.60717773 C-231.77044922 389.87563477 -232.34021484 389.1440918 -232.92724609 388.39038086 C-235.55311796 384.9431607 -237.94469764 381.34602614 -240.35693359 377.74780273 C-243.34569 373.33630913 -246.40559867 369.12889564 -249.85693359 365.06030273 C-260.39018767 352.22967226 -263.46592733 338.77302183 -262.43505859 322.46655273 C-260.91234081 310.42983123 -254.33811056 298.48409187 -245.44287109 290.36889648 C-234.42983577 281.88916267 -223.11389246 277.88727972 -209.54443359 275.49780273 C-208.4282666 275.29997192 -208.4282666 275.29997192 -207.28955078 275.09814453 C-202.00551437 274.23550407 -196.96029416 274.07388492 -191.60693359 274.18530273 C-191.49623535 273.61610107 -191.38553711 273.04689941 -191.27148438 272.46044922 C-190.76142916 269.84727871 -190.2467153 267.23504609 -189.73193359 264.62280273 C-189.55791016 263.72754883 -189.38388672 262.83229492 -189.20458984 261.90991211 C-188.21729879 256.91860732 -187.08932105 252.05314262 -185.60693359 247.18530273 C-186.92693359 247.18530273 -188.24693359 247.18530273 -189.60693359 247.18530273 C-200.33301176 246.11575078 -212.60919635 239.30979428 -219.60693359 231.18530273 C-225.70261842 223.50473986 -230.82914485 215.33141203 -235.72241211 206.84692383 C-239.30141109 200.64609198 -243.08684952 194.59504672 -246.93457031 188.55810547 C-249.60503745 184.3639012 -252.24775146 180.15655615 -254.83740234 175.91186523 C-260.01761297 167.4281187 -265.2684321 159.10909408 -271.10693359 151.06030273 C-275.45202282 145.03086554 -279.0651098 139.21941103 -281.60693359 132.18530273 C-281.99494141 131.20819336 -282.38294922 130.23108398 -282.78271484 129.22436523 C-287.02846475 117.40629848 -287.46480897 104.61857255 -282.86865234 92.82983398 C-280.8480078 88.59461307 -278.5297459 84.85481892 -275.60693359 81.18530273 C-275.12869141 80.58202148 -274.65044922 79.97874023 -274.15771484 79.35717773 C-258.10344766 61.40227942 -226.43062954 52.4941638 -204.60693359 44.18530273 C-203.39175049 43.7210791 -202.17656738 43.25685547 -200.92456055 42.77856445 C-191.72878639 39.28550127 -182.4698408 36.00218805 -173.16040039 32.82543945 C-170.9090181 32.05674655 -168.65928347 31.28336776 -166.40966797 30.50952148 C-155.02691733 26.60597732 -143.58940184 22.93167591 -131.98193359 19.74780273 C-130.83930054 19.43431885 -130.83930054 19.43431885 -129.67358398 19.11450195 C-128.08901765 18.68106357 -126.5041389 18.24876567 -124.91894531 17.81762695 C-122.74053799 17.2218429 -120.56624443 16.61279245 -118.39208984 16.00170898 C-97.28979578 10.15896014 -75.76691847 5.58257317 -54.04443359 2.81030273 C-52.82852539 2.65489014 -51.61261719 2.49947754 -50.35986328 2.33935547 C-33.55942703 0.3272102 -16.90280112 -0.00113793 0 0 Z M-31.79833984 19.14624023 C-36.48457932 20.02176557 -41.14688639 20.62547184 -45.88647461 21.12207031 C-85.75680432 25.32636332 -124.81699881 36.07855985 -162.60693359 49.18530273 C-163.66364258 49.54994629 -164.72035156 49.91458984 -165.80908203 50.2902832 C-182.19304442 55.96674694 -198.31238549 62.14230319 -214.31542969 68.81518555 C-217.63363765 70.19641853 -220.95742887 71.56339553 -224.28271484 72.92749023 C-226.41179991 73.80466051 -228.54071347 74.6822472 -230.66943359 75.56030273 C-231.62624023 75.95282227 -232.58304688 76.3453418 -233.56884766 76.74975586 C-246.57594613 82.15135954 -259.27105011 87.72155032 -265.60693359 101.18530273 C-267.87456095 108.06277782 -267.87163607 116.47889366 -265.53662109 123.32202148 C-263.75202629 126.75220998 -261.75100802 129.97398411 -259.60693359 133.18530273 C-258.83446289 134.35802734 -258.83446289 134.35802734 -258.04638672 135.55444336 C-255.05980736 140.08049662 -252.04182418 144.58448685 -249.00927734 149.07983398 C-245.12726444 154.8641921 -241.5519493 160.79924575 -238.01708984 166.80004883 C-219.25086293 203.69710826 -219.25086293 203.69710826 -188.54443359 228.06030273 C-178.86262132 230.54737378 -170.13827187 228.27028298 -160.60693359 226.18530273 C-160.98023804 227.21494141 -160.98023804 227.21494141 -161.36108398 228.26538086 C-164.04381005 235.94446981 -165.9590714 243.6763063 -167.61569214 251.62866211 C-168.34775997 255.14033665 -169.10240824 258.64714603 -169.85693359 262.15405273 C-170.00492905 262.84362061 -170.1529245 263.53318848 -170.30540466 264.24365234 C-172.18509163 272.94637532 -174.36023735 281.57124156 -176.60693359 290.18530273 C-177.31076172 290.26047119 -178.01458984 290.33563965 -178.73974609 290.41308594 C-210.37606161 292.41085445 -210.37606161 292.41085445 -236.60693359 308.18530273 C-242.97048502 316.54050002 -244.65792254 324.78290075 -243.60693359 335.18530273 C-241.59406303 344.7067102 -235.28770638 351.95214228 -229.47094727 359.47290039 C-224.78991266 365.52763665 -220.56574033 371.71748923 -216.55883789 378.23388672 C-214.40499143 381.66351371 -212.21394444 384.73722267 -209.41552734 387.67358398 C-208.8937793 388.22731689 -208.37203125 388.7810498 -207.83447266 389.3515625 C-206.40130716 390.82539646 -204.91787549 392.24988755 -203.43115234 393.66967773 C-200.49079115 399.33632672 -202.20454534 404.19661016 -203.60693359 410.18530273 C-203.80034332 411.0349762 -203.99375305 411.88464966 -204.19302368 412.7600708 C-205.8632924 420.06534176 -207.6360317 427.34447869 -209.41943359 434.62280273 C-210.47000708 438.93341991 -211.51735185 443.24481622 -212.56396484 447.55639648 C-212.94743576 449.13123306 -212.94743576 449.13123306 -213.33865356 450.73788452 C-215.33466521 458.96794727 -217.22992424 467.21851354 -219.05610657 475.48789978 C-219.24650009 476.34202957 -219.43689362 477.19615936 -219.63305664 478.07617188 C-219.79791061 478.82467911 -219.96276459 479.57318634 -220.13261414 480.34437561 C-220.60693359 482.18530273 -220.60693359 482.18530273 -221.60693359 484.18530273 C-222.93594851 499.80667484 -218.79680378 511.65464825 -208.86865234 523.46264648 C-206.80299304 525.89240162 -204.7156366 528.3020934 -202.61865234 530.70483398 C-200.04175122 533.6631391 -197.56073898 536.68613298 -195.10693359 539.74780273 C-191.3387072 544.39188716 -187.34530967 548.76684565 -183.26586914 553.13427734 C-175.81800289 561.13645827 -168.76488655 569.47663994 -161.91943359 577.99780273 C-154.77859854 586.73694743 -148.50569891 593.55238096 -137.60693359 597.18530273 C-124.88419275 598.02160359 -114.48609415 597.52489023 -104.23193359 589.12280273 C-91.45274044 576.64643406 -89.40059254 554.5498203 -85.68774414 537.82666016 C-82.77983585 524.76689195 -79.67063892 511.75681546 -76.54443359 498.74780273 C-76.29498993 497.70769043 -76.04554626 496.66757812 -75.7885437 495.59594727 C-73.07043504 484.26719841 -70.30667844 472.95181312 -67.46240234 461.65405273 C-65.16124305 452.50450838 -63.00462969 443.33785265 -60.98193359 434.12280273 C-60.16149705 430.38633348 -59.33303785 426.65313909 -58.4699707 422.92626953 C-57.86589711 420.30781985 -57.29489985 417.69300017 -56.74584961 415.06347656 C-54.26365041 403.80801165 -54.26365041 403.80801165 -50.52490234 401.39233398 C-48.67832031 400.70204102 -48.67832031 400.70204102 -46.79443359 399.99780273 C-45.35095391 399.39991972 -43.90966904 398.79671972 -42.47021484 398.18920898 C-41.68984863 397.87741699 -40.90948242 397.565625 -40.10546875 397.24438477 C-35.42298906 395.25956975 -30.97181029 392.81681384 -26.48193359 390.43530273 C-25.0264209 389.67358765 -25.0264209 389.67358765 -23.54150391 388.89648438 C-8.39571327 380.96623605 6.60524814 372.76526555 21.39306641 364.18530273 C20.94189453 365.31323242 20.49072266 366.44116211 20.02587891 367.60327148 C18.3202488 372.16259032 17.27062606 376.74254688 16.26806641 381.49780273 C13.54326532 393.94997989 10.33571188 406.26871757 7.13146973 418.60377502 C2.50694048 436.33295288 2.50694048 436.33295288 -1.60693359 454.18530273 C-2.84185547 454.42764648 -4.07677734 454.66999023 -5.34912109 454.91967773 C-9.84446592 455.80623481 -14.33640296 456.70888687 -18.82666016 457.62084961 C-20.61460368 457.9838392 -22.40298286 458.34469303 -24.19189453 458.70288086 C-26.58289889 459.18505256 -28.97011531 459.6828681 -31.35693359 460.18530273 C-32.06962402 460.32677734 -32.78231445 460.46825195 -33.51660156 460.61401367 C-44.80092753 463.04137868 -54.28368582 469.69906741 -60.61083984 479.41967773 C-64.94050269 487.09421737 -65.756975 494.32090721 -64.05615234 502.99389648 C-61.87972725 510.59591211 -57.89805664 516.91575241 -53.63427734 523.47827148 C-50.07243353 528.96562926 -46.71602266 534.57228692 -43.35693359 540.18530273 C-42.72295654 541.24056152 -42.08897949 542.29582031 -41.43579102 543.38305664 C-38.16581642 548.84221312 -34.94025153 554.32268136 -31.77880859 559.84545898 C-31.16166992 560.91989258 -30.54453125 561.99432617 -29.90869141 563.10131836 C-28.74370939 565.13577475 -27.58627034 567.17457724 -26.43798828 569.21850586 C-20.32678168 579.8862814 -12.8227163 589.32897189 -0.89868164 593.57666016 C3.37812492 594.71249469 7.61488115 594.71480728 12.01806641 594.68530273 C13.56820435 594.67563477 13.56820435 594.67563477 15.1496582 594.66577148 C38.23642486 594.14562199 60.61004015 588.4796251 82.39306641 581.18530273 C83.09512207 580.95115662 83.79717773 580.7170105 84.52050781 580.47576904 C120.79304947 568.35152717 156.01577397 554.10741624 189.01318359 534.59057617 C191.27058826 533.25762364 193.53673255 531.94128569 195.80712891 530.63061523 C217.43911668 518.10342683 239.70770156 505.00447764 258.61181641 488.57202148 C262.28651707 485.41859156 266.1107543 482.47293729 269.97314453 479.5534668 C280.21793481 471.65514428 289.40747576 462.35759296 298.54003906 453.22363281 C300.15103099 451.61484907 301.76991596 450.01429083 303.38916016 448.41381836 C308.86238396 442.96975601 313.98716991 437.46204561 318.72070312 431.34570312 C320.14102745 429.51089291 321.5965844 427.74358767 323.12353516 425.99780273 C367.41155322 375.30245614 390.47551098 312.53685244 386.39306641 245.18530273 C384.17287961 223.16774151 376.90745168 202.5299288 366.39306641 183.18530273 C366.07756836 182.59056152 365.76207031 181.99582031 365.43701172 181.38305664 C338.46646676 130.6700475 289.078581 97.7045897 235.23388672 81.04467773 C217.67513277 75.73298867 199.83846703 72.20881235 181.70556641 69.49780273 C180.83826904 69.36752686 179.97097168 69.23725098 179.07739258 69.10302734 C174.85799093 68.51350839 170.75752765 68.11858771 166.49462891 68.13061523 C155.76416586 68.1539158 150.90114697 66.43361598 142.97705078 58.63647461 C114.92262332 32.9343296 75.90595009 23.89588279 39.39306641 19.18530273 C38.50087402 19.06670898 37.60868164 18.94811523 36.68945312 18.82592773 C14.56698673 15.97961385 -9.80602961 14.99512828 -31.79833984 19.14624023 Z " fill="#450FAF" transform="translate(449.60693359375,203.814697265625)"/>
<path d="M0 0 C19.27720404 2.01876264 37.65977185 5.66660722 56 12 C56.74137207 12.25539551 57.48274414 12.51079102 58.24658203 12.77392578 C74.8734759 18.63785745 89.5476248 27.05764876 98 43 C101.14519325 49.74282729 101.42774355 55.49019306 101.3125 62.875 C101.31572266 63.89980469 101.31894531 64.92460937 101.32226562 65.98046875 C101.14715746 91.03685555 87.85567448 116.13174737 72 135 C71.5359375 135.5559082 71.071875 136.11181641 70.59375 136.68457031 C67.5665396 140.30106191 64.49370436 143.8744305 61.38427734 147.42041016 C60.19392663 148.77871159 59.01213213 150.14450278 57.83203125 151.51171875 C45.46420681 165.60194814 32.22133491 178.07068654 17 189 C15.62993058 190.00352715 14.26013733 191.00743147 12.890625 192.01171875 C2.72157766 199.39360471 -7.86381277 206.04026652 -18.60791016 212.54833984 C-20.68657293 213.80979411 -22.75709598 215.08305246 -24.82421875 216.36328125 C-32.59505627 221.14434202 -40.55489393 225.56611999 -48.5625 229.9375 C-49.59866455 230.50597656 -50.6348291 231.07445312 -51.70239258 231.66015625 C-52.68876709 232.19382812 -53.6751416 232.7275 -54.69140625 233.27734375 C-55.56998291 233.75421631 -56.44855957 234.23108887 -57.35375977 234.72241211 C-60.17691599 236.08541391 -63.00912485 237.06981566 -66 238 C-65.31866384 231.4904775 -63.48267163 225.44859174 -61.625 219.1875 C-57.45741519 204.89503872 -53.67747688 190.5100484 -49.94580078 176.09838867 C-47.4988839 166.65765705 -44.98506722 157.24151131 -42.35522461 147.85009766 C-40.78384915 142.23836627 -39.23927628 136.61932491 -37.6953125 131 C-37.40732285 129.95197205 -37.11933319 128.90394409 -36.82261658 127.82415771 C-35.92307282 124.54953126 -35.02399821 121.27477627 -34.125 118 C-33.81530273 116.87237244 -33.50560547 115.74474487 -33.18652344 114.58294678 C-29.76007399 102.10515198 -26.34231046 89.62563549 -23 77.125 C-20.8339842 69.02721975 -18.59356063 60.9549381 -16.26757812 52.90161133 C-14.90992826 48.19980335 -13.57860619 43.49228106 -12.28125 38.7734375 C-3.57471739 7.14943478 -3.57471739 7.14943478 0 0 Z " fill="#0C0B0C" transform="translate(631,407)"/>
<path d="M0 0 C0.84433594 0.61617188 1.68867187 1.23234375 2.55859375 1.8671875 C8.03231042 6.64902638 10.86944253 13.1401169 11.5546875 20.33203125 C12.46242316 38.77682511 3.95414692 52.24709461 -7.875 65.75 C-12.85461144 71.0508767 -18.28646338 75.52082381 -24 80 C-25.12373722 80.93171674 -26.24470915 81.86677606 -27.36328125 82.8046875 C-37.01026322 90.82891117 -47.24026781 97.56245317 -58 104 C-58.62326172 104.37656738 -59.24652344 104.75313477 -59.88867188 105.14111328 C-68.99041648 110.59759395 -78.4789772 115.37412097 -87.93911743 120.17175293 C-89.33000103 120.8780393 -90.71936808 121.58732203 -92.10702515 122.29992676 C-115.99814466 134.5392759 -115.99814466 134.5392759 -127 134 C-126.62728431 128.59562244 -125.72740368 123.78516535 -124.1640625 118.59375 C-121.99962899 111.16466169 -120.27602857 103.68222115 -118.625 96.125 C-116.59480954 86.94168677 -114.48244493 77.79338728 -112.125 68.6875 C-109.23874137 57.41625684 -106.76671405 46.05884135 -104.3125 34.6875 C-104.120047 33.8037973 -103.92759399 32.9200946 -103.72930908 32.00961304 C-101.06037887 19.72679597 -98.83015486 7.43566762 -97 -5 C-69.33425956 -11.80797788 -24.46982769 -18.39836669 0 0 Z " fill="#0C0C0C" transform="translate(512,352)"/>
<path d="M0 0 C0.66 0 1.32 0 2 0 C1.78085937 0.92554688 1.56171875 1.85109375 1.3359375 2.8046875 C1.01553393 4.16143683 0.69523137 5.51821001 0.375 6.875 C0.1989624 7.61951416 0.0229248 8.36402832 -0.15844727 9.13110352 C-1.2691004 13.84438741 -2.35734617 18.56211424 -3.42578125 23.28515625 C-5.8128362 33.80720722 -8.25530055 44.2712773 -11.24145508 54.640625 C-12.73155426 59.86895842 -13.9722009 65.12522482 -15.125 70.4375 C-15.37407104 71.56188477 -15.37407104 71.56188477 -15.62817383 72.70898438 C-16.34914618 75.96878086 -17.04268442 79.22390598 -17.66796875 82.50390625 C-17.98701172 83.98697266 -17.98701172 83.98697266 -18.3125 85.5 C-18.47363281 86.3353125 -18.63476562 87.170625 -18.80078125 88.03125 C-20.40594755 90.66644158 -22.15207335 90.77212862 -25.02534485 91.52557373 C-28.13952948 92.27378083 -31.26504516 92.94165462 -34.40234375 93.5859375 C-35.80154074 93.87969225 -37.20062601 94.17397956 -38.59960938 94.46875 C-40.76843688 94.92353972 -42.93772689 95.37504622 -45.10913086 95.81738281 C-61.04100093 99.07416396 -71.59330202 104.28189877 -81 118 C-81.33 117.01 -81.66 116.02 -82 115 C-82.66 115 -83.32 115 -84 115 C-84.33 114.01 -84.66 113.02 -85 112 C-85.66 112 -86.32 112 -87 112 C-87.33 111.01 -87.66 110.02 -88 109 C-88.17128418 109.74161377 -88.34256836 110.48322754 -88.51904297 111.24731445 C-89.2980258 114.60388363 -90.08639528 117.95817901 -90.875 121.3125 C-91.14441406 122.47974609 -91.41382813 123.64699219 -91.69140625 124.84960938 C-91.95566406 125.96787109 -92.21992188 127.08613281 -92.4921875 128.23828125 C-92.73308105 129.26993408 -92.97397461 130.30158691 -93.22216797 131.36450195 C-94 134 -94 134 -96 137 C-96.33916861 130.91150978 -95.08417657 125.83830994 -93.4375 120 C-90.94293573 110.81807031 -88.73974416 101.60282403 -86.6875 92.3125 C-85.63342587 87.61516345 -84.57213684 82.91951156 -83.50512695 78.22509766 C-83.15690201 76.69115753 -82.80980132 75.1569619 -82.46362305 73.62255859 C-81.34104703 68.65361773 -80.19185135 63.69201768 -79.00967407 58.73690796 C-78.63082696 57.1316623 -78.26039799 55.52440459 -77.89877319 53.91519165 C-77.39106934 51.66276482 -76.85357784 49.41943609 -76.30859375 47.17578125 C-76.09308868 46.17321289 -76.09308868 46.17321289 -75.87322998 45.15039062 C-74.94405549 41.48125119 -74.06701168 40.05365971 -71.07641602 37.65893555 C-67.61098101 35.79022427 -64.09229548 34.1050864 -60.5 32.5 C-51.82900013 28.5166436 -43.50557181 23.99449523 -35.15625 19.3828125 C-30.59135619 16.86305158 -26.00581325 14.38532245 -21.40625 11.9296875 C-20.76460403 11.58706375 -20.12295807 11.24444 -19.46186829 10.89143372 C-16.90357745 9.52623411 -14.34476538 8.16202896 -11.78451538 6.80050659 C-10.00529626 5.85415946 -8.22723028 4.90564528 -6.44921875 3.95703125 C-5.42143311 3.41022705 -4.39364746 2.86342285 -3.3347168 2.30004883 C-1.10900108 1.20026189 -1.10900108 1.20026189 0 0 Z " fill="#460FB0" transform="translate(469,568)"/>
<path d="M0 0 C-1.26046729 8.3353181 -2.97300008 16.4601901 -5.0625 24.625 C-5.4656543 26.23568359 -5.4656543 26.23568359 -5.87695312 27.87890625 C-7.85893654 35.71787309 -7.85893654 35.71787309 -9 38 C-10.77490234 38.63842773 -10.77490234 38.63842773 -13.0859375 39.18359375 C-13.92995117 39.38766846 -14.77396484 39.59174316 -15.64355469 39.80200195 C-16.54493164 40.01171631 -17.44630859 40.22143066 -18.375 40.4375 C-20.20073057 40.87673326 -22.02625313 41.31683212 -23.8515625 41.7578125 C-24.73618164 41.96954102 -25.62080078 42.18126953 -26.53222656 42.39941406 C-31.04890754 43.49864588 -35.52653209 44.73798956 -40 46 C-38.79248053 39.80825121 -38.79248053 39.80825121 -38.25317383 37.26147461 C-37.55596603 33.95543499 -36.97486736 30.75809834 -36.625 27.390625 C-35.95800033 22.31666319 -35.35069586 19.12952928 -31.328125 15.765625 C-28.31805754 14.03171517 -25.31727978 12.5054887 -22.16943359 11.04931641 C-18.08509734 9.07379568 -14.18772197 6.74973153 -10.25 4.5 C-8.71666472 3.62988996 -7.18041813 2.76488012 -5.640625 1.90625 C-4.98610352 1.53822266 -4.33158203 1.17019531 -3.65722656 0.79101562 C-2 0 -2 0 0 0 Z " fill="#0C0C0D" transform="translate(443,604)"/>
<path d="M0 0 C0.66 0 1.32 0 2 0 C2.58007812 1.03898438 3.16015625 2.07796875 3.7578125 3.1484375 C4.5467957 4.55733608 5.33586277 5.96618769 6.125 7.375 C6.50398438 8.05433594 6.88296875 8.73367188 7.2734375 9.43359375 C9.43404052 13.28666914 11.64849256 17.09819721 13.93359375 20.87890625 C16.00249143 24.30683748 18.00963351 27.75987314 19.96484375 31.25390625 C20.45533203 32.12853516 20.94582031 33.00316406 21.45117188 33.90429688 C22.44279424 35.67775028 23.42977322 37.45380793 24.41210938 39.23242188 C31.86115384 52.46106571 40.76142144 63.03702841 55 69 C55.70640625 69.30808594 56.4128125 69.61617187 57.140625 69.93359375 C68.58176977 74.36174052 81.90759193 73.14133983 94 73 C94 73.33 94 73.66 94 74 C74.82103096 76.34409622 58.31416155 76.51657069 42.04296875 64.671875 C36.0454198 59.76374699 31.25462847 54.73149796 27.2265625 48.07421875 C26.8858522 47.51223785 26.54514191 46.95025696 26.19410706 46.37124634 C21.96559379 39.35393034 17.94830396 32.21447832 13.92456055 25.07861328 C9.90092499 17.95114119 5.77479014 10.94020588 1.25219727 4.11376953 C0 2 0 2 0 0 Z " fill="#5410D3" transform="translate(384,742)"/>
<path d="M0 0 C4.76225355 1.33714927 8.43306853 3.40103431 12.375 6.3125 C12.97803955 6.75343994 13.5810791 7.19437988 14.20239258 7.64868164 C16.14616884 9.08475701 18.07503646 10.53881927 20 12 C20.62729004 12.4734082 21.25458008 12.94681641 21.90087891 13.43457031 C37.48414249 25.3132544 52.31704153 39.21533224 64 55 C64.41040527 55.54994629 64.82081055 56.09989258 65.24365234 56.66650391 C76.98413294 72.46552862 76.98413294 72.46552862 79 78 C78.505 79.485 78.505 79.485 78 81 C77.25169922 79.67162109 77.25169922 79.67162109 76.48828125 78.31640625 C67.51247063 62.70425908 56.52292547 48.90346843 44 36 C43.13503906 35.09507812 42.27007813 34.19015625 41.37890625 33.2578125 C30.08394314 21.66329499 16.89870038 12.4153568 3.3359375 3.6640625 C1 2 1 2 0 0 Z " fill="#4E0FC9" transform="translate(750,294)"/>
<path d="M0 0 C0.99 0.495 0.99 0.495 2 1 C-7.34635259 7.82355819 -17.17341659 13.90031295 -27 20 C-27.65129883 20.40508789 -28.30259766 20.81017578 -28.97363281 21.22753906 C-44.32419091 30.73183835 -60.33034454 39.1189556 -76.3125 47.5 C-77.24835937 47.99218018 -78.18421875 48.48436035 -79.1484375 48.99145508 C-83.39057005 51.20217074 -87.65301383 53.36692487 -91.98046875 55.40625 C-92.68453857 55.73947266 -93.3886084 56.07269531 -94.11401367 56.41601562 C-96 57 -96 57 -99 56 C-98.401875 55.731875 -97.80375 55.46375 -97.1875 55.1875 C-94.97957124 54.16343011 -94.97957124 54.16343011 -93.75 52.5 C-92 51 -92 51 -88.703125 50.31640625 C-82.32954351 48.80099925 -76.74596728 45.49351695 -71 42.4375 C-69.78194618 41.79591049 -68.56368265 41.15471896 -67.34521484 40.51391602 C-63.8887013 38.69099824 -60.4428673 36.84857601 -57 35 C-56.18305664 34.56171875 -55.36611328 34.1234375 -54.52441406 33.671875 C-40.72390165 26.21282896 -27.36916979 17.88742096 -14.28515625 9.2421875 C-13.36702148 8.63665039 -12.44888672 8.03111328 -11.50292969 7.40722656 C-9.73671296 6.23722819 -7.97544756 5.05971374 -6.21972656 3.87402344 C-5.43178711 3.35098633 -4.64384766 2.82794922 -3.83203125 2.2890625 C-2.79139526 1.58837646 -2.79139526 1.58837646 -1.72973633 0.87353516 C-1.15892334 0.58526855 -0.58811035 0.29700195 0 0 Z " fill="#5210D1" transform="translate(693,724)"/>
<path d="M0 0 C2.62337141 2.43828692 4.57570115 5.1319183 6.625 8.0625 C10.05425477 12.83336449 13.74552248 17.16654313 17.7265625 21.48046875 C20.02055265 24.02277742 22.17077436 26.64114184 24.3125 29.3125 C27.67016714 33.46294966 31.16948014 37.41546604 34.8125 41.3125 C42.80859732 49.87208069 50.40386935 58.75218939 57.75 67.875 C65.27774782 77.20029594 65.27774782 77.20029594 75 84 C73.515 84.495 73.515 84.495 72 85 C61.69809602 76.15064213 52.88077254 66.41795512 44.37890625 55.84765625 C41.68870841 52.62737017 38.86739545 49.56182565 36 46.5 C31.47668136 41.66880777 27.21579867 36.69844099 23.0703125 31.53515625 C21.15112116 29.18505214 19.1664101 26.93139815 17.125 24.6875 C13.66750076 20.82569641 10.36762587 16.85493124 7.125 12.8125 C6.40981201 11.93887817 6.40981201 11.93887817 5.68017578 11.04760742 C2.87706844 7.51126357 1.17190314 4.43841478 0 0 Z " fill="#5511D7" transform="translate(231,714)"/>
<path d="M0 0 C5.6336721 0.50810017 9.68204973 2.68865236 14.5 5.4375 C15.29245117 5.88561035 16.08490234 6.3337207 16.90136719 6.79541016 C32.86502558 15.97852873 47.33625495 27.62834374 60 41 C59.34 41.66 58.68 42.32 58 43 C57.67 42.01 57.34 41.02 57 40 C56.4225 39.731875 55.845 39.46375 55.25 39.1875 C53 38 53 38 50.77734375 35.265625 C47.98665168 31.83499306 44.81938194 29.23234839 41.3125 26.5625 C40.69165527 26.08441895 40.07081055 25.60633789 39.43115234 25.11376953 C37.62779826 23.73292355 35.815842 22.36436358 34 21 C33.15050781 20.35675781 32.30101562 19.71351563 31.42578125 19.05078125 C21.65954824 11.93751476 10.81386356 6.33467879 0 1 C0 0.67 0 0.34 0 0 Z " fill="#7F24E8" transform="translate(707,332)"/>
<path d="M0 0 C0.33 0 0.66 0 1 0 C2.60472858 17.25083222 -9.81250864 38.55126903 -20 52 C-20.28875 52.845625 -20.5775 53.69125 -20.875 54.5625 C-22.30823489 57.66784227 -23.9958392 58.4979196 -27 60 C-25.74381475 56.5379775 -24.31102993 53.90274768 -22.0625 51 C-11.18537805 35.74466544 -3.54721386 18.38101729 0 0 Z " fill="#7D25E6" transform="translate(732,480)"/>
<path d="M0 0 C17.89660321 3.46385869 38.21146013 12.82022633 48.8125 28.1796875 C49.4003125 29.08074219 49.4003125 29.08074219 50 30 C50.9590625 31.3921875 50.9590625 31.3921875 51.9375 32.8125 C53 35 53 35 52 38 C50.85018626 36.23174858 49.70528078 34.46030479 48.5625 32.6875 C47.92441406 31.70136719 47.28632812 30.71523438 46.62890625 29.69921875 C45 27 45 27 44 24 C42.68903992 23.29034805 41.35277179 22.62628324 40 22 C38.63875 20.700625 38.63875 20.700625 37.25 19.375 C27.00884864 10.44122966 12.69789625 6.14881759 0 2 C0 1.34 0 0.68 0 0 Z " fill="#8325EA" transform="translate(678,415)"/>
<path d="M0 0 C4.36106001 3.70587729 6.66388454 8.43651006 9.375 13.375 C13.86540613 21.39559963 18.55983766 29.24804565 23.5 37 C24.08700684 37.92474121 24.67401367 38.84948242 25.27880859 39.80224609 C27.54960415 43.34326997 29.75880023 46.71300281 32.46875 49.9375 C32.9740625 50.618125 33.479375 51.29875 34 52 C33.67 52.99 33.34 53.98 33 55 C27.89360399 47.86953562 23.12616321 40.57455354 18.5 33.125 C17.87480469 32.12597656 17.24960938 31.12695312 16.60546875 30.09765625 C12.77002616 23.94347818 9.09294547 17.72760453 5.56054688 11.39404297 C4.06814875 8.76078241 4.06814875 8.76078241 1 7 C0.3125 3.375 0.3125 3.375 0 0 Z " fill="#5610DA" transform="translate(205,360)"/>
<path d="M0 0 C3.38863968 2.77157257 4.94674497 6.55652391 6.75 10.4375 C7.09417969 11.17524658 7.43835938 11.91299316 7.79296875 12.6730957 C10.48055166 18.57679487 12.82256266 24.57857858 15 30.6875 C15.30260742 31.524021 15.60521484 32.36054199 15.91699219 33.22241211 C17.43679117 37.62724566 18.3666517 41.27172073 18 46 C16.16727699 43.25091549 15.1667345 41.01960032 14.0625 37.9375 C13.74410156 37.05964844 13.42570313 36.18179688 13.09765625 35.27734375 C12.48435419 33.44616785 11.88972766 31.60747133 11.36743164 29.74829102 C9.60732715 23.49659046 7.211681 17.86548589 4.3125 12.0625 C3.49079672 10.41017573 2.67414242 8.75532809 1.86328125 7.09765625 C1.50532471 6.38101807 1.14736816 5.66437988 0.77856445 4.92602539 C0 3 0 3 0 0 Z " fill="#490DBF" transform="translate(830,376)"/>
<path d="M0 0 C2.64752004 2.57784846 4.94432065 4.91648098 7 8 C10.01625992 8.5893657 10.01625992 8.5893657 13.58203125 8.6953125 C14.23322433 8.73308807 14.88441742 8.77086365 15.55534363 8.80978394 C17.64058258 8.92833271 19.72618464 9.02740304 21.8125 9.125 C23.88773625 9.23342405 25.96268053 9.34590135 28.03752136 9.4616394 C29.9280261 9.5652953 31.81911296 9.65816666 33.71020508 9.75048828 C36.56252743 9.96682026 39.21640241 10.36181094 42 11 C42 11.33 42 11.66 42 12 C36.98160038 12.07978438 31.96765708 12.10032881 26.94873047 12.06713867 C25.2436054 12.0640655 23.53837191 12.07688582 21.83349609 12.10620117 C7.65516646 12.33381592 7.65516646 12.33381592 3.51269531 8.99560547 C1.52522798 6.07983549 0 3.58486252 0 0 Z " fill="#050904" transform="translate(578,295)"/>
<path d="M0 0 C0.639375 0.268125 1.27875 0.53625 1.9375 0.8125 C3.4534375 1.4003125 3.4534375 1.4003125 5 2 C5.6084375 2.25265625 6.216875 2.5053125 6.84375 2.765625 C18.51237598 7.20666921 31.69032691 6.1438793 44 6 C44 6.33 44 6.66 44 7 C27.86172135 8.97245628 13.72926327 9.6022004 -1 2 C-0.67 1.34 -0.34 0.68 0 0 Z " fill="#4C0EC3" transform="translate(434,809)"/>
<path d="M0 0 C14.3471475 2.8694295 26.94018421 8.5891162 40 15 C36.60106804 16.13297732 36.24475896 15.95086201 33.1484375 14.55859375 C32.00640869 14.05803467 32.00640869 14.05803467 30.84130859 13.54736328 C30.02742676 13.1811084 29.21354492 12.81485352 28.375 12.4375 C21.07299085 9.23767991 13.7478634 6.38126141 6.16943359 3.90405273 C1.10279155 2.20558309 1.10279155 2.20558309 0 0 Z " fill="#5111CA" transform="translate(685,284)"/>
<path d="M0 0 C0.33 0 0.66 0 1 0 C0.35906885 7.48544284 -1.16115053 14.58216956 -2.9375 21.875 C-3.33485352 23.56496094 -3.33485352 23.56496094 -3.74023438 25.2890625 C-3.99998047 26.36671875 -4.25972656 27.444375 -4.52734375 28.5546875 C-4.76187256 29.52905762 -4.99640137 30.50342773 -5.23803711 31.50732422 C-6 34 -6 34 -8 37 C-8.42253817 30.45984397 -6.85323098 24.77789951 -5.125 18.5 C-4.85558594 17.49324219 -4.58617187 16.48648438 -4.30859375 15.44921875 C-2.9211783 10.28532612 -1.48606989 5.13631923 0 0 Z " fill="#5311CD" transform="translate(381,668)"/>
<path d="M0 0 C11.15104487 3.92961175 22.70657502 13.70657502 31 22 C26.79159939 21.48678041 24.87284481 20.32725021 21.875 17.375 C15.95961284 11.86586221 9.28723381 7.49923115 2 4 C2 3.34 2 2.68 2 2 C1.34 2 0.68 2 0 2 C0 1.34 0 0.68 0 0 Z " fill="#4B0EC2" transform="translate(582,233)"/>
<path d="M0 0 C2.37861111 7.13583333 -3.36704578 16.84636825 -6.0625 23.5625 C-6.41376953 24.46291016 -6.76503906 25.36332031 -7.12695312 26.29101562 C-7.46791016 27.14501953 -7.80886719 27.99902344 -8.16015625 28.87890625 C-8.46574463 29.6479126 -8.77133301 30.41691895 -9.08618164 31.20922852 C-10 33 -10 33 -12 34 C-11.2822793 29.14083685 -9.45074977 24.83651082 -7.625 20.3125 C-5.3086496 14.48750812 -3.14453491 8.71236027 -1.5078125 2.65234375 C-1 1 -1 1 0 0 Z " fill="#5411D1" transform="translate(829,527)"/>
<path d="M0 0 C-6.78884893 6.78884893 -15.53084392 11.29704715 -25.3125 11.3125 C-26.529375 11.209375 -27.74625 11.10625 -29 11 C-29 10.67 -29 10.34 -29 10 C-27.89140625 9.73445312 -26.7828125 9.46890625 -25.640625 9.1953125 C-24.17702189 8.83879379 -22.71348359 8.48200897 -21.25 8.125 C-20.52039063 7.95097656 -19.79078125 7.77695312 -19.0390625 7.59765625 C-12.44588175 6.16890045 -12.44588175 6.16890045 -7.5 1.9375 C-6 0 -6 0 -3.9375 -0.8125 C-2 -1 -2 -1 0 0 Z " fill="#4B0FC0" transform="translate(357,808)"/>
<path d="M0 0 C2 1 2 1 3.125 3.375 C4 6 4 6 4 9 C4.99 9.33 5.98 9.66 7 10 C9.45297884 14.17006403 8.90765496 17.3709597 8 22 C5.31015958 19.31015958 4.57422882 16.22586358 3.4375 12.6875 C3.21642578 12.02298828 2.99535156 11.35847656 2.76757812 10.67382812 C1.6116257 7.1431094 0.63045456 3.66230343 0 0 Z " fill="#5116C4" transform="translate(589,313)"/>
<path d="M0 0 C-20.21846847 8.92717718 -20.21846847 8.92717718 -26 7 C-20.59420328 4.75157128 -15.14696292 2.63443287 -9.625 0.6875 C-8.15933594 0.16736328 -8.15933594 0.16736328 -6.6640625 -0.36328125 C-3.94207857 -1.01384339 -2.59105308 -0.95169011 0 0 Z " fill="#4C0FC2" transform="translate(551,780)"/>
<path d="M0 0 C-1.4160599 0.79275148 -2.83287553 1.58415312 -4.25 2.375 C-5.43335938 3.03628906 -5.43335938 3.03628906 -6.640625 3.7109375 C-7.80851562 4.34902344 -7.80851562 4.34902344 -9 5 C-9.6703125 5.3815625 -10.340625 5.763125 -11.03125 6.15625 C-13.26676135 7.11432629 -14.83184154 7.20560528 -17.25 7.125 C-19.10625 7.063125 -19.10625 7.063125 -21 7 C-21 6.34 -21 5.68 -21 5 C-17.87883314 3.96717589 -14.75255182 2.95080882 -11.625 1.9375 C-10.29082031 1.49567383 -10.29082031 1.49567383 -8.9296875 1.04492188 C-8.07890625 0.77099609 -7.228125 0.49707031 -6.3515625 0.21484375 C-5.56604004 -0.04176025 -4.78051758 -0.29836426 -3.97119141 -0.56274414 C-2 -1 -2 -1 0 0 Z " fill="#141415" transform="translate(395,569)"/>
<path d="M0 0 C1.98 0.495 1.98 0.495 4 1 C3.01 1.495 3.01 1.495 2 2 C3.4354503 3.77249524 4.87343803 5.54293576 6.3125 7.3125 C7.51326172 8.79169922 7.51326172 8.79169922 8.73828125 10.30078125 C10.42688356 12.31602166 12.09630699 14.19488009 14 16 C13.67 16.99 13.34 17.98 13 19 C11.4147483 17.2725597 9.83177374 15.54312043 8.25 13.8125 C7.36828125 12.84957031 6.4865625 11.88664063 5.578125 10.89453125 C4.72734375 9.93933594 3.8765625 8.98414063 3 8 C2.21109375 7.11699219 1.4221875 6.23398437 0.609375 5.32421875 C0.07828125 4.55722656 -0.4528125 3.79023437 -1 3 C-0.67 2.01 -0.34 1.02 0 0 Z " fill="#EAE9EA" transform="translate(243,532)"/>
<path d="M0 0 C-2.32872458 0.99152726 -4.6620497 1.96816007 -7 2.9375 C-7.64839844 3.21529297 -8.29679687 3.49308594 -8.96484375 3.77929688 C-13.67534807 5.71480112 -17.92472444 6.55251477 -23 7 C-21.45722084 3.91444168 -18.86412199 3.71486206 -15.70898438 2.64257812 C-14.87689453 2.36865234 -14.04480469 2.09472656 -13.1875 1.8125 C-11.95676758 1.38420898 -11.95676758 1.38420898 -10.70117188 0.94726562 C-9.90646484 0.68236328 -9.11175781 0.41746094 -8.29296875 0.14453125 C-7.5661792 -0.09934326 -6.83938965 -0.34321777 -6.09057617 -0.59448242 C-3.72990887 -1.05239068 -2.2628096 -0.74682606 0 0 Z " fill="#7B23E3" transform="translate(474,685)"/>
<path d="M0 0 C0.33 0 0.66 0 1 0 C1.95918329 8.15305793 2.58785474 16.0699656 0 24 C-0.66 24.33 -1.32 24.66 -2 25 C-2.90009061 21.93969192 -3.11682612 20.33879574 -2.0625 17.28125 C-0.88641317 13.64921714 -0.59040933 10.43056482 -0.375 6.625 C-0.30023437 5.37976563 -0.22546875 4.13453125 -0.1484375 2.8515625 C-0.09945312 1.91054688 -0.05046875 0.96953125 0 0 Z " fill="#DEDEDE" transform="translate(523,372)"/>
<path d="M0 0 C0.33 0 0.66 0 1 0 C1.51778074 7.69479711 0.7505733 13.21882953 -3 20 C-3.33 20 -3.66 20 -4 20 C-2.28571429 2.28571429 -2.28571429 2.28571429 0 0 Z " fill="#5111C9" transform="translate(370,714)"/>
<path d="M0 0 C0 0.99 0 1.98 0 3 C-1.66666667 4.66666667 -3.33333333 6.33333333 -5 8 C-5.63292383 10.11280345 -5.63292383 10.11280345 -6 12 C-9 14 -9 14 -12 14 C-10.41332422 10.09714233 -7.86649519 7.66479018 -4.875 4.75 C-3.96492187 3.85796875 -3.05484375 2.9659375 -2.1171875 2.046875 C-1.41851563 1.37140625 -0.71984375 0.6959375 0 0 Z " fill="#7B23E0" transform="translate(689,558)"/>
<path d="M0 0 C-6.42932907 4.28621938 -15.34336868 5.53418358 -23 5 C-20.17536801 2.17536801 -16.98379783 2.03757736 -13.1875 1.375 C-12.47529297 1.2409375 -11.76308594 1.106875 -11.02929688 0.96875 C-7.3134352 0.29501375 -3.77729125 -0.1632621 0 0 Z " fill="#4D0FC7" transform="translate(510,792)"/>
<path d="M0 0 C0.68835938 0.59748047 0.68835938 0.59748047 1.390625 1.20703125 C5.22819067 4.53112484 5.22819067 4.53112484 9.25 7.625 C11.24585172 9.19316921 12.5642247 10.91812582 14 13 C13.67 13.66 13.34 14.32 13 15 C11.19806011 13.44816214 9.40904324 11.88468811 7.625 10.3125 C7.11710937 9.87744141 6.60921875 9.44238281 6.0859375 8.99414062 C2.98858032 6.2431984 1.19102597 3.98204465 0 0 Z " fill="#E3E3E3" transform="translate(259,552)"/>
<path d="M0 0 C0.99 0 1.98 0 3 0 C2.10640325 6.43389658 -0.93716453 9.16866505 -6 13 C-4.58707905 8.1725201 -2.57025846 4.2837641 0 0 Z " fill="#121212" transform="translate(517,392)"/>
<path d="M0 0 C-5.16946663 5.16946663 -13.94650197 6.46766053 -21 7 C-19.60244372 4.20488743 -17.66081879 4.00177006 -14.82421875 3.046875 C-13.79748047 2.71429688 -13.79748047 2.71429688 -12.75 2.375 C-11.74646484 2.03082031 -11.74646484 2.03082031 -10.72265625 1.6796875 C-7.04644695 0.46632176 -3.87485263 -0.28535736 0 0 Z " fill="#4E10C7" transform="translate(292,233)"/>
<path d="M0 0 C1.07536348 3.22609045 1.14375422 5.62177584 1 9 C0.67 9.66 0.34 10.32 0 11 C-0.66 11 -1.32 11 -2 11 C-2.33 12.65 -2.66 14.3 -3 16 C-4.29302919 12.37089807 -3.68677944 9.96054037 -2.625 6.3125 C-2.34914063 5.33925781 -2.07328125 4.36601562 -1.7890625 3.36328125 C-1 1 -1 1 0 0 Z " fill="#7722DD" transform="translate(526,496)"/>
<path d="M0 0 C6.71539173 1.29975324 12.72019113 3.29928888 19 6 C19 6.66 19 7.32 19 8 C12.62267685 6.12275039 6.29304541 4.14328358 0 2 C0 1.34 0 0.68 0 0 Z " fill="#7923DD" transform="translate(678,415)"/>
<path d="M0 0 C4.68904588 1.42300113 7.51610475 4.15696334 10.8125 7.625 C11.31458984 8.140625 11.81667969 8.65625 12.33398438 9.1875 C13.56296227 10.45159154 14.78246001 11.72488806 16 13 C15.34 13.66 14.68 14.32 14 15 C13.67 14.01 13.34 13.02 13 12 C12.4225 11.731875 11.845 11.46375 11.25 11.1875 C8.57666558 9.7765735 7.09600939 7.87785397 5.23828125 5.53125 C3.62988354 3.54231655 1.84086449 1.77268432 0 0 Z " fill="#7723DB" transform="translate(751,360)"/>
<path d="M0 0 C1.99954746 -0.04254356 4.00041636 -0.04080783 6 0 C6.33 0.33 6.66 0.66 7 1 C8.68183948 1.23287008 10.3712416 1.41264166 12.0625 1.5625 C12.98160156 1.64628906 13.90070313 1.73007812 14.84765625 1.81640625 C15.91306641 1.90728516 15.91306641 1.90728516 17 2 C17 2.33 17 2.66 17 3 C6.605 3.495 6.605 3.495 -4 4 C-2.68 3.67 -1.36 3.34 0 3 C0 2.01 0 1.02 0 0 Z " fill="#CECECE" transform="translate(442,340)"/>
<path d="M0 0 C0.66 0 1.32 0 2 0 C2.33 1.65 2.66 3.3 3 5 C4.32 5.33 5.64 5.66 7 6 C6.01 6.33 5.02 6.66 4 7 C4.33 7.66 4.66 8.32 5 9 C3.02 9 1.04 9 -1 9 C-0.67 6.03 -0.34 3.06 0 0 Z " fill="#171718" transform="translate(386,477)"/>
<path d="M0 0 C0.66 0.33 1.32 0.66 2 1 C1 2 0 3 -1 4 C-1.639375 4.7425 -2.27875 5.485 -2.9375 6.25 C-3.618125 6.8275 -4.29875 7.405 -5 8 C-7.0625 7.6875 -7.0625 7.6875 -9 7 C-9.99 7.33 -10.98 7.66 -12 8 C-12 7.34 -12 6.68 -12 6 C-10.04669132 4.96958487 -8.08718472 3.9509107 -6.125 2.9375 C-5.03445313 2.36902344 -3.94390625 1.80054688 -2.8203125 1.21484375 C-1.42425781 0.61349609 -1.42425781 0.61349609 0 0 Z " fill="#E0E0E1" transform="translate(422,472)"/>
<path d="M0 0 C1.07765625 0.00902344 2.1553125 0.01804688 3.265625 0.02734375 C4.08546875 0.03894531 4.9053125 0.05054688 5.75 0.0625 C2.72906785 3.08343215 -0.81372072 2.52926834 -4.875 2.6875 C-5.67679687 2.72617188 -6.47859375 2.76484375 -7.3046875 2.8046875 C-9.28607556 2.89903931 -11.26800645 2.98186215 -13.25 3.0625 C-8.72900181 0.04850121 -5.38967935 -0.05858347 0 0 Z " fill="#4C0FC3" transform="translate(397.25,223.9375)"/>
<path d="M0 0 C-2.41032251 1.20216334 -4.82683479 2.38674978 -7.25 3.5625 C-8.27287109 4.07586914 -8.27287109 4.07586914 -9.31640625 4.59960938 C-13.02168909 6.38030356 -15.07871478 7.3058334 -19 6 C-16.34143629 4.64739741 -13.67797254 3.31319144 -11 2 C-10.35675781 1.6803125 -9.71351563 1.360625 -9.05078125 1.03125 C-5.53512685 -0.61599805 -3.67977269 -1.17592736 0 0 Z " fill="#4F0FC7" transform="translate(592,764)"/>
<path d="M0 0 C-1.875 1.0625 -1.875 1.0625 -4 2 C-4.66 1.67 -5.32 1.34 -6 1 C-6 1.66 -6 2.32 -6 3 C-8.64 3.33 -11.28 3.66 -14 4 C-13.4375 2.0625 -13.4375 2.0625 -12 0 C-7.71249148 -1.05165303 -4.25621291 -1.16078534 0 0 Z " fill="#E9E9E9" transform="translate(286,527)"/>
<path d="M0 0 C3.33557632 2.9905167 5.15083921 5.93184627 7 10 C6.01 10.33 5.02 10.66 4 11 C1.11670417 7.744666 -0.63331529 5.40021656 -1 1 C-0.67 0.67 -0.34 0.34 0 0 Z " fill="#141414" transform="translate(261,379)"/>
<path d="M0 0 C-5.66507011 3.08900201 -10.50857435 5.57664615 -17 6 C-17 5.34 -17 4.68 -17 4 C-14.73291675 3.1344953 -12.46224921 2.28240685 -10.1875 1.4375 C-9.54490234 1.19064453 -8.90230469 0.94378906 -8.24023438 0.68945312 C-3.33984375 -1.11328125 -3.33984375 -1.11328125 0 0 Z " fill="#4C10C3" transform="translate(572,772)"/>
<path d="M0 0 C0.66 0 1.32 0 2 0 C0.59914312 4.75109895 -1.76717527 6.80698538 -5.625 9.8125 C-7.12933594 10.99779297 -7.12933594 10.99779297 -8.6640625 12.20703125 C-9.43492187 12.79871094 -10.20578125 13.39039063 -11 14 C-11.66 13.67 -12.32 13.34 -13 13 C-12.31292969 12.39671875 -11.62585938 11.7934375 -10.91796875 11.171875 C-10.01691406 10.37265625 -9.11585938 9.5734375 -8.1875 8.75 C-6.84751953 7.56664062 -6.84751953 7.56664062 -5.48046875 6.359375 C-2.99430466 4.13050012 -2.99430466 4.13050012 -1.30078125 1.703125 C-0.87152344 1.14109375 -0.44226563 0.5790625 0 0 Z " fill="#EBEBEB" transform="translate(507,413)"/>
<path d="M0 0 C0 4.35637821 -2.27897057 6.05610053 -5.109375 9.19140625 C-7.24427494 11.23367623 -9.12212703 12.30233382 -12 13 C-8.19524578 8.43969176 -4.25030379 4.14910608 0 0 Z " fill="#161616" transform="translate(506,412)"/>
<path d="M0 0 C0.33 0 0.66 0 1 0 C2.22899346 6.06815522 3.27560214 11.79895188 3 18 C1 17 1 17 0.37890625 15.359375 C-0.11285402 12.29728012 -0.0935003 9.35003047 -0.0625 6.25 C-0.05347656 5.07953125 -0.04445312 3.9090625 -0.03515625 2.703125 C-0.02355469 1.81109375 -0.01195312 0.9190625 0 0 Z " fill="#3E0C9C" transform="translate(187,529)"/>
<path d="M0 0 C0.99 0.33 1.98 0.66 3 1 C2.26394531 1.53109375 1.52789062 2.0621875 0.76953125 2.609375 C-0.20628906 3.31578125 -1.18210938 4.0221875 -2.1875 4.75 C-3.63189453 5.79414063 -3.63189453 5.79414063 -5.10546875 6.859375 C-7.79129214 8.84565195 -10.40666793 10.89499188 -13 13 C-11.50536684 9.3852622 -9.4391696 7.35564512 -6.5 4.8125 C-5.7059375 4.11769531 -4.911875 3.42289062 -4.09375 2.70703125 C-2 1 -2 1 0 0 Z " fill="#510FD0" transform="translate(212,489)"/>
<path d="M0 0 C0.99 0 1.98 0 3 0 C3 0.66 3 1.32 3 2 C4.98 2 6.96 2 9 2 C9 2.33 9 2.66 9 3 C1.08 3.495 1.08 3.495 -7 4 C-6.67 3.01 -6.34 2.02 -6 1 C-3.03 1.495 -3.03 1.495 0 2 C0 1.34 0 0.68 0 0 Z " fill="#181819" transform="translate(416,251)"/>
<path d="M0 0 C1.65 0 3.3 0 5 0 C4.67 0.66 4.34 1.32 4 2 C3.34 2 2.68 2 2 2 C1.95101563 2.78246094 1.90203125 3.56492187 1.8515625 4.37109375 C1.77679688 5.38300781 1.70203125 6.39492188 1.625 7.4375 C1.55539062 8.44683594 1.48578125 9.45617187 1.4140625 10.49609375 C1.27742188 11.32238281 1.14078125 12.14867187 1 13 C0.01 13.495 0.01 13.495 -1 14 C-0.67 9.38 -0.34 4.76 0 0 Z " fill="#020202" transform="translate(415,347)"/>
<path d="M0 0 C0.99 0.33 1.98 0.66 3 1 C2.25234375 1.54269531 1.5046875 2.08539063 0.734375 2.64453125 C-0.25046875 3.35996094 -1.2353125 4.07539063 -2.25 4.8125 C-3.22453125 5.52019531 -4.1990625 6.22789062 -5.203125 6.95703125 C-7.48189009 8.62154821 -9.74765822 10.30001823 -12 12 C-10.56394807 8.61181498 -8.79533421 6.6813402 -6 4.3125 C-5.29875 3.71050781 -4.5975 3.10851562 -3.875 2.48828125 C-2 1 -2 1 0 0 Z " fill="#4F0FCB" transform="translate(186,275)"/>
<path d="M0 0 C2.09012603 1.80510884 3.00096499 3.0025331 4 5.625 C4.495 6.800625 4.495 6.800625 5 8 C5.99 8.33 6.98 8.66 8 9 C6.02 9.99 6.02 9.99 4 11 C3.13050683 9.92892883 2.27985795 8.84254056 1.4375 7.75 C0.96183594 7.14671875 0.48617188 6.5434375 -0.00390625 5.921875 C-1 4 -1 4 -0.65234375 1.765625 C-0.43707031 1.18296875 -0.22179687 0.6003125 0 0 Z " fill="#EAEAEA" transform="translate(269,386)"/>
<path d="M0 0 C-1.6875 2 -1.6875 2 -4 4 C-6.5 4.1875 -6.5 4.1875 -9 4 C-10.34332728 4.29044914 -11.68225804 4.60955794 -13 5 C-13 4.34 -13 3.68 -13 3 C-11.21189234 2.30329584 -9.41937948 1.61788811 -7.625 0.9375 C-6.62726563 0.55464844 -5.62953125 0.17179687 -4.6015625 -0.22265625 C-2 -1 -2 -1 0 0 Z " fill="#E7E7E8" transform="translate(277,293)"/>
<path d="M0 0 C0.99 0.33 1.98 0.66 3 1 C3 1.66 3 2.32 3 3 C1.5682384 3.69937202 0.12932968 4.38412718 -1.3125 5.0625 C-2.51326172 5.63677734 -2.51326172 5.63677734 -3.73828125 6.22265625 C-6 7 -6 7 -9 6 C-8.401875 5.731875 -7.80375 5.46375 -7.1875 5.1875 C-5.01474908 4.00800664 -3.69381635 2.770808 -2 1 C-1.34 0.67 -0.68 0.34 0 0 Z " fill="#4C0FC1" transform="translate(603,774)"/>
<path d="M0 0 C0.33 0 0.66 0 1 0 C0.88487847 1.72985242 0.75744323 3.45888751 0.625 5.1875 C0.52058594 6.63189453 0.52058594 6.63189453 0.4140625 8.10546875 C-0.00215853 11.01508938 -0.79874096 13.32890774 -2 16 C-2.33 16 -2.66 16 -3 16 C-2.57910004 10.39538469 -2.08386889 5.27913453 0 0 Z " fill="#5511D4" transform="translate(385,651)"/>
<path d="M0 0 C0.66 0 1.32 0 2 0 C2 0.66 2 1.32 2 2 C2.86625 2.37125 2.86625 2.37125 3.75 2.75 C6.3002997 4.16683317 8.01785701 5.87627537 10 8 C9.67 8.99 9.34 9.98 9 11 C7.49403892 9.54782324 5.99537896 8.08807139 4.5 6.625 C3.6646875 5.81289063 2.829375 5.00078125 1.96875 4.1640625 C0 2 0 2 0 0 Z " fill="#0F0C1D" transform="translate(789,321)"/>
<path d="M0 0 C1.49828872 3.88235819 0.43110582 6.43449288 -0.9375 10.25 C-1.31777344 11.32765625 -1.69804688 12.4053125 -2.08984375 13.515625 C-2.39019531 14.33546875 -2.69054687 15.1553125 -3 16 C-4.12758089 12.61725734 -3.81750262 11.23221777 -3.0625 7.8125 C-2.86785156 6.91144531 -2.67320312 6.01039063 -2.47265625 5.08203125 C-2.31667969 4.39496094 -2.16070313 3.70789063 -2 3 C-1.34 3 -0.68 3 0 3 C0 2.01 0 1.02 0 0 Z " fill="#7C23E9" transform="translate(567,630)"/>
<path d="M0 0 C3.97497544 3.40712181 5.86793788 7.32760855 8 12 C7.01 12.495 7.01 12.495 6 13 C5.731875 12.38125 5.46375 11.7625 5.1875 11.125 C4.04443152 8.7004767 4.04443152 8.7004767 1 7 C0.3125 3.375 0.3125 3.375 0 0 Z " fill="#500FCB" transform="translate(205,360)"/>
<path d="M0 0 C2.1875 -0.3125 2.1875 -0.3125 5 0 C7.8125 2.5 7.8125 2.5 10 5 C4.06 4.01 4.06 4.01 -2 3 C-1.34 2.67 -0.68 2.34 0 2 C0 1.34 0 0.68 0 0 Z " fill="#E2E2E2" transform="translate(487,340)"/>
<path d="M0 0 C3.67033927 3.27708863 5.69281189 6.71522208 8 11 C7.01 11.33 6.02 11.66 5 12 C4.73445312 11.43410156 4.46890625 10.86820312 4.1953125 10.28515625 C3.84210938 9.55167969 3.48890625 8.81820313 3.125 8.0625 C2.77695313 7.33160156 2.42890625 6.60070312 2.0703125 5.84765625 C1.1315023 3.83667541 1.1315023 3.83667541 -1 3 C-0.67 2.01 -0.34 1.02 0 0 Z " fill="#161616" transform="translate(228,328)"/>
<path d="M0 0 C5.06998019 0.65419099 9.41990777 2.8546409 14 5 C14 5.66 14 6.32 14 7 C4.22210581 3.99633316 4.22210581 3.99633316 0 1 C0 0.67 0 0.34 0 0 Z " fill="#4C0DC3" transform="translate(560,222)"/>
<path d="M0 0 C0.66 0.33 1.32 0.66 2 1 C0.02 1.99 0.02 1.99 -2 3 C-1.34 2.01 -0.68 1.02 0 0 Z M-4 3 C-3.34 3.33 -2.68 3.66 -2 4 C-2.99 4 -3.98 4 -5 4 C-4.67 3.67 -4.34 3.34 -4 3 Z M-7 5 C-6.34 5.33 -5.68 5.66 -5 6 C-5 6.99 -5 7.98 -5 9 C-6.32 9.33 -7.64 9.66 -9 10 C-9.33 9.01 -9.66 8.02 -10 7 C-9.01 6.34 -8.02 5.68 -7 5 Z " fill="#121313" transform="translate(496,510)"/>
<path d="M0 0 C1.485 0.99 1.485 0.99 3 2 C2.34 5.3 1.68 8.6 1 12 C-1 10 -1 10 -1.23046875 7.87109375 C-1.20919922 6.66646484 -1.20919922 6.66646484 -1.1875 5.4375 C-1.18105469 4.63183594 -1.17460937 3.82617188 -1.16796875 2.99609375 C-1 1 -1 1 0 0 Z " fill="#151515" transform="translate(306,494)"/>
<path d="M0 0 C0.33 0.99 0.66 1.98 1 3 C-1.97 4.65 -4.94 6.3 -8 8 C-8.33 7.01 -8.66 6.02 -9 5 C-8.01 5 -7.02 5 -6 5 C-5.67 4.01 -5.34 3.02 -5 2 C-3 1.375 -3 1.375 -1 1 C-0.67 0.67 -0.34 0.34 0 0 Z " fill="#141414" transform="translate(472,441)"/>
<path d="M0 0 C0.66 0 1.32 0 2 0 C1.34 3.96 0.68 7.92 0 12 C-2 10 -2 10 -2.265625 8.125 C-2.26046875 7.42375 -2.2553125 6.7225 -2.25 6 C-2.25515625 5.29875 -2.2603125 4.5975 -2.265625 3.875 C-2 2 -2 2 0 0 Z " fill="#E5E5E5" transform="translate(410,369)"/>
<path d="M0 0 C1.65 0 3.3 0 5 0 C4.01 0.495 4.01 0.495 3 1 C3 1.66 3 2.32 3 3 C3.99 3.33 4.98 3.66 6 4 C-2.03571429 6.27678571 -2.03571429 6.27678571 -6 5 C-4.02 4.34 -2.04 3.68 0 3 C0 2.01 0 1.02 0 0 Z " fill="#490EBA" transform="translate(310,241)"/>
<path d="M0 0 C2.53910197 0.38520564 3.72751123 0.70097943 5.484375 2.62890625 C5.90203125 3.26699219 6.3196875 3.90507813 6.75 4.5625 C7.17796875 5.20316406 7.6059375 5.84382812 8.046875 6.50390625 C8.36140625 6.99761719 8.6759375 7.49132812 9 8 C5 8 5 8 3.375 6.8125 C1.74621941 4.66547104 0.89008333 2.5333141 0 0 Z " fill="#121212" transform="translate(313,758)"/>
<path d="M0 0 C6.57142857 4 6.57142857 4 8 8 C7.01 8.33 6.02 8.66 5 9 C0.57142857 3.85714286 0.57142857 3.85714286 0 0 Z " fill="#131313" transform="translate(511,352)"/>
<path d="M0 0 C2.34058637 2.12780579 3.70700306 4.11562221 5 7 C4.01 7.33 3.02 7.66 2 8 C-2 3.25 -2 3.25 -2 1 C-1.34 0.67 -0.68 0.34 0 0 Z " fill="#121212" transform="translate(236,340)"/>
<path d="M0 0 C0.66 0 1.32 0 2 0 C0.515 6.435 0.515 6.435 -1 13 C-1.33 13 -1.66 13 -2 13 C-2.16682272 8.07872966 -2.24828052 4.49656104 0 0 Z " fill="#4B0FBF" transform="translate(168,294)"/>
<path d="M0 0 C0.66 0.33 1.32 0.66 2 1 C-1.34118082 4.57983659 -3.73768141 6.89716734 -8.75 7.125 C-9.4925 7.08375 -10.235 7.0425 -11 7 C-10.01 6.34 -9.02 5.68 -8 5 C-7.34902344 4.56300781 -6.69804687 4.12601563 -6.02734375 3.67578125 C-5.33769531 3.22589844 -4.64804687 2.77601563 -3.9375 2.3125 C-2.89916016 1.62607422 -2.89916016 1.62607422 -1.83984375 0.92578125 C-1.23269531 0.62027344 -0.62554687 0.31476562 0 0 Z " fill="#4F10CA" transform="translate(344,793)"/>
<path d="M0 0 C0.66 0 1.32 0 2 0 C1.14285714 8.57142857 1.14285714 8.57142857 -1 12 C-2.45606519 7.47907032 -1.27032841 4.48351204 0 0 Z " fill="#181818" transform="translate(328,739)"/>
<path d="M0 0 C0.99 0.33 1.98 0.66 3 1 C-0.63 4.3 -4.26 7.6 -8 11 C-8 8 -8 8 -6.25 5.95703125 C-5.5075 5.24933594 -4.765 4.54164063 -4 3.8125 C-2.88625 2.73935547 -2.88625 2.73935547 -1.75 1.64453125 C-1.1725 1.10183594 -0.595 0.55914063 0 0 Z " fill="#8126E6" transform="translate(674,573)"/>
<path d="M0 0 C3.875 1.75 3.875 1.75 5 4 C6.98 3.67 8.96 3.34 11 3 C11 3.66 11 4.32 11 5 C9.02 5.66 7.04 6.32 5 7 C0 1.125 0 1.125 0 0 Z " fill="#060607" transform="translate(268,392)"/>
<path d="M0 0 C0.66 0 1.32 0 2 0 C2.99 3.63 3.98 7.26 5 11 C4.01 11.495 4.01 11.495 3 12 C2.49440092 10.56445975 1.9957251 9.1264798 1.5 7.6875 C1.2215625 6.88699219 0.943125 6.08648437 0.65625 5.26171875 C0 3 0 3 0 0 Z " fill="#0E0C18" transform="translate(164,327)"/>
<path d="M0 0 C0.66 0.66 1.32 1.32 2 2 C-0.64 4.31 -3.28 6.62 -6 9 C-6.66 8.67 -7.32 8.34 -8 8 C-5.36 5.36 -2.72 2.72 0 0 Z " fill="#4F11C3" transform="translate(749,655)"/>
<path d="M0 0 C0.66 0.33 1.32 0.66 2 1 C-0.57784846 3.64752004 -2.91648098 5.94432065 -6 8 C-6 7.01 -6 6.02 -6 5 C-5.34 4.67 -4.68 4.34 -4 4 C-4.33 3.34 -4.66 2.68 -5 2 C-2.625 0.9375 -2.625 0.9375 0 0 Z " fill="#E6E6E6" transform="translate(230,309)"/>
<path d="M0 0 C0.99 0.33 1.98 0.66 3 1 C2.67 2.98 2.34 4.96 2 7 C1.01 7.33 0.02 7.66 -1 8 C-0.67 5.36 -0.34 2.72 0 0 Z " fill="#171717" transform="translate(350,645)"/>
<path d="M0 0 C0.99 0 1.98 0 3 0 C3.33 0.99 3.66 1.98 4 3 C2.35 4.65 0.7 6.3 -1 8 C-0.67 5.36 -0.34 2.72 0 0 Z " fill="#1E1E1E" transform="translate(362,593)"/>
<path d="M0 0 C-2.46115371 2.27183419 -3.73620199 2.9736202 -7.125 3.3125 C-10 3 -10 3 -12 1 C-7.9472484 0.01751476 -4.16138263 -0.08159574 0 0 Z " fill="#100C1F" transform="translate(430,222)"/>
<path d="M0 0 C1.46726798 3.81489674 0.43336419 6.29011622 -1 10 C-1.33 9.34 -1.66 8.68 -2 8 C-2.66 8 -3.32 8 -4 8 C-2.66666667 5.33333333 -1.33333333 2.66666667 0 0 Z " fill="#7722E3" transform="translate(577,594)"/>
<path d="M0 0 C0.66 0.66 1.32 1.32 2 2 C1.828125 4.12890625 1.828125 4.12890625 1.25 6.5625 C1.06953125 7.36816406 0.8890625 8.17382812 0.703125 9.00390625 C0 11 0 11 -2 12 C-1.34 8.04 -0.68 4.08 0 0 Z " fill="#E2E2E2" transform="translate(327,410)"/>
<path d="M0 0 C0.66 0 1.32 0 2 0 C2.99 2.97 3.98 5.94 5 9 C2 8 2 8 0.8125 6.1875 C0 4 0 4 0 0 Z " fill="#EAE0F0" transform="translate(588,316)"/>
<path d="M0 0 C2.4375 0.8125 2.4375 0.8125 5 2 C5.33 2.99 5.66 3.98 6 5 C5.34 5.66 4.68 6.32 4 7 C0 2.25 0 2.25 0 0 Z " fill="#EBEBEB" transform="translate(288,724)"/>
<path d="M0 0 C0.99 0.33 1.98 0.66 3 1 C2.6875 3.375 2.6875 3.375 2 6 C1.01 6.66 0.02 7.32 -1 8 C-0.67 5.36 -0.34 2.72 0 0 Z " fill="#171717" transform="translate(334,713)"/>
<path d="M0 0 C0.33 0 0.66 0 1 0 C0.88590407 1.45922693 0.75834456 2.91740598 0.625 4.375 C0.55539062 5.18710937 0.48578125 5.99921875 0.4140625 6.8359375 C0 9 0 9 -2 11 C-1.85957123 9.35369672 -1.71250671 7.70795821 -1.5625 6.0625 C-1.48128906 5.14597656 -1.40007812 4.22945312 -1.31640625 3.28515625 C-1 1 -1 1 0 0 Z " fill="#5310D0" transform="translate(388,639)"/>
<path d="M0 0 C0.66 0 1.32 0 2 0 C1.67 2.97 1.34 5.94 1 9 C1.66 9.33 2.32 9.66 3 10 C2.01 10 1.02 10 0 10 C-0.95024979 6.30458414 -0.95024979 3.69541586 0 0 Z " fill="#DFDFDF" transform="translate(384,477)"/>
<path d="M0 0 C1.46726798 3.81489674 0.43336419 6.29011622 -1 10 C-2.42944945 7.64561267 -3.08661261 6.51967567 -2.625 3.75 C-2.41875 3.1725 -2.2125 2.595 -2 2 C-1.34 2 -0.68 2 0 2 C0 1.34 0 0.68 0 0 Z " fill="#7A23E4" transform="translate(609,476)"/>
<path d="M0 0 C0 3 0 3 -2 6 C-2.33 6.99 -2.66 7.98 -3 9 C-3.99 8.67 -4.98 8.34 -6 8 C-4.55746343 4.63408134 -2.66735273 2.48952921 0 0 Z " fill="#E8E6E8" transform="translate(553,456)"/>
<path d="M0 0 C0.66 0.33 1.32 0.66 2 1 C-0.3125 3.5 -0.3125 3.5 -3 6 C-3.99 6 -4.98 6 -6 6 C-6 5.34 -6 4.68 -6 4 C-4.03852126 2.61061923 -2.03833424 1.2739589 0 0 Z " fill="#E9E9E9" transform="translate(463,449)"/>
<path d="M0 0 C3.3125 1.25 3.3125 1.25 4.3125 3.25 C-1.6275 2.26 -1.6275 2.26 -7.6875 1.25 C-3.6875 -0.75 -3.6875 -0.75 0 0 Z " fill="#1C1B1C" transform="translate(509.6875,254.75)"/>
<path d="M0 0 C0 3.58912412 -0.66436554 4.10857029 -3 6.6875 C-3.556875 7.31011719 -4.11375 7.93273437 -4.6875 8.57421875 C-5.120625 9.04472656 -5.55375 9.51523437 -6 10 C-6 6.41087588 -5.33563446 5.89142971 -3 3.3125 C-2.443125 2.68988281 -1.88625 2.06726563 -1.3125 1.42578125 C-0.879375 0.95527344 -0.44625 0.48476563 0 0 Z " fill="#8427E9" transform="translate(704,540)"/>
<path d="M0 0 C1.41687119 4.25061356 0.19320039 6.71851625 -1 11 C-2.1875 9.4375 -2.1875 9.4375 -3 7 C-1.625 3.25 -1.625 3.25 0 0 Z " fill="#4E10C5" transform="translate(829,527)"/>
<path d="M0 0 C0.33 0.66 0.66 1.32 1 2 C1.66 2 2.32 2 3 2 C2.67 4.31 2.34 6.62 2 9 C1.34 9 0.68 9 0 9 C-1.125 3.375 -1.125 3.375 0 0 Z " fill="#5E21BF" transform="translate(526,492)"/>
<path d="M0 0 C4.18199633 2.09099816 4.99659367 2.99318733 7 7 C7 7.66 7 8.32 7 9 C6.34 9 5.68 9 5 9 C3.35 6.03 1.7 3.06 0 0 Z " fill="#F7F7F7" transform="translate(262,379)"/>
<path d="M0 0 C-0.33 0.66 -0.66 1.32 -1 2 C-4.3 1.67 -7.6 1.34 -11 1 C-6.8204355 -1.78637633 -4.85331323 -0.79562512 0 0 Z " fill="#0F0C1B" transform="translate(642,255)"/>
<path d="M0 0 C-2.6855594 2.6855594 -5.37621328 3.06049974 -9 4 C-9.66 3.34 -10.32 2.68 -11 2 C-7.17679443 0.57741188 -4.08718695 -0.24042276 0 0 Z " fill="#4B0EC5" transform="translate(336,220)"/>
<path d="M0 0 C2.12038635 2.61514317 4.13091744 5.19637616 6 8 C5.01 8 4.02 8 3 8 C2.67 7.34 2.34 6.68 2 6 C1.01 5.34 0.02 4.68 -1 4 C-0.67 2.68 -0.34 1.36 0 0 Z " fill="#131313" transform="translate(262,694)"/>
<path d="M0 0 C0.5625 1.9375 0.5625 1.9375 1 4 C0 5 0 5 -3.5625 5.0625 C-4.696875 5.041875 -5.83125 5.02125 -7 5 C-6.34 4.34 -5.68 3.68 -5 3 C-3.68 3 -2.36 3 -1 3 C-0.67 2.01 -0.34 1.02 0 0 Z " fill="#4B0FBD" transform="translate(435,639)"/>
<path d="M0 0 C-1 3 -1 3 -3.9375 4.6875 C-7 6 -7 6 -9 6 C-9 5.34 -9 4.68 -9 4 C-2.25 0 -2.25 0 0 0 Z " fill="#5412CE" transform="translate(471,568)"/>
<path d="M0 0 C0.66 0.33 1.32 0.66 2 1 C1.2884375 1.6496875 1.2884375 1.6496875 0.5625 2.3125 C-1.23686957 4.02309613 -1.23686957 4.02309613 -2 7 C-2.99 7.33 -3.98 7.66 -5 8 C-5 5 -5 5 -2.5 2.3125 C-1.675 1.549375 -0.85 0.78625 0 0 Z " fill="#7724DB" transform="translate(695,551)"/>
<path d="M0 0 C0.33 0.66 0.66 1.32 1 2 C1.66 2 2.32 2 3 2 C2 4 1 6 0 8 C-0.66 8 -1.32 8 -2 8 C-1.34 5.36 -0.68 2.72 0 0 Z " fill="#0F0D1A" transform="translate(843,541)"/>
<path d="M0 0 C0.99 0.495 0.99 0.495 2 1 C2.59355614 3.64860427 2.74209269 6.29197322 3 9 C2.34 9 1.68 9 1 9 C0.67 6.03 0.34 3.06 0 0 Z " fill="#3E0CA2" transform="translate(849,426)"/>
<path d="M0 0 C0.33 0 0.66 0 1 0 C1.36666667 5.5 1.36666667 5.5 -0.375 7.875 C-2 9 -2 9 -4 9 C-3 6 -3 6 -1 3 C-0.67 2.01 -0.34 1.02 0 0 Z " fill="#E9E9EA" transform="translate(338,372)"/>
<path d="M0 0 C3.36720387 1.39332574 4.9859524 2.9789286 7 6 C4 6 4 6 1.8125 4.125 C0 2 0 2 0 0 Z " fill="#F8F8F9" transform="translate(566,285)"/>
<path d="M0 0 C4.75 0.875 4.75 0.875 7 2 C6.67 2.99 6.34 3.98 6 5 C4.02 4.34 2.04 3.68 0 3 C0 2.01 0 1.02 0 0 Z " fill="#EAEAEA" transform="translate(534,265)"/>
<path d="M0 0 C0.66 0.33 1.32 0.66 2 1 C1.67 1.66 1.34 2.32 1 3 C2.32 3.66 3.64 4.32 5 5 C4.01 5.495 4.01 5.495 3 6 C1.02 4.68 -0.96 3.36 -3 2 C-2.01 1.34 -1.02 0.68 0 0 Z " fill="#5011C7" transform="translate(563,240)"/>
<path d="M0 0 C-2.6855594 2.6855594 -5.37621328 3.06049974 -9 4 C-9.66 3.34 -10.32 2.68 -11 2 C-7.17679443 0.57741188 -4.08718695 -0.24042276 0 0 Z " fill="#480FBB" transform="translate(292,233)"/>
<path d="M0 0 C0.66 0.66 1.32 1.32 2 2 C1.625 5.625 1.625 5.625 1 9 C0.34 9 -0.32 9 -1 9 C-0.67 6.03 -0.34 3.06 0 0 Z " fill="#0F0D1B" transform="translate(450,649)"/>
<path d="M0 0 C0.33 1.32 0.66 2.64 1 4 C-1.64 4.33 -4.28 4.66 -7 5 C-4.84365964 2.84365964 -2.62901288 1.52206009 0 0 Z " fill="#040405" transform="translate(302,518)"/>
<path d="M0 0 C0.66 0.66 1.32 1.32 2 2 C-0.31 3.32 -2.62 4.64 -5 6 C-4.1875 3.5625 -4.1875 3.5625 -3 1 C-2.01 0.67 -1.02 0.34 0 0 Z " fill="#EAEAEB" transform="translate(484,516)"/>
<path d="M0 0 C0.66 0.66 1.32 1.32 2 2 C1.625 5.625 1.625 5.625 1 9 C0.34 9 -0.32 9 -1 9 C-0.67 6.03 -0.34 3.06 0 0 Z " fill="#DFDFDF" transform="translate(312,478)"/>
<path d="M0 0 C3.91402949 1.26941497 5.79072873 2.51167694 8 6 C5 6 5 6 3.61328125 4.6875 C2.40885417 3.125 1.20442708 1.5625 0 0 Z " fill="#7823D9" transform="translate(714,432)"/>
<path d="M0 0 C0.33 0.99 0.66 1.98 1 3 C-0.98 3.66 -2.96 4.32 -5 5 C-4.625 3.0625 -4.625 3.0625 -4 1 C-2 0 -2 0 0 0 Z " fill="#E3E3E3" transform="translate(297,382)"/>
<path d="M0 0 C1.670625 0.061875 1.670625 0.061875 3.375 0.125 C1.725 1.445 0.075 2.765 -1.625 4.125 C-2.945 3.465 -4.265 2.805 -5.625 2.125 C-3.625 0.125 -3.625 0.125 0 0 Z " fill="#601EBE" transform="translate(622.625,307.875)"/>
<path d="M0 0 C-0.99 0.33 -1.98 0.66 -3 1 C-3.33 1.99 -3.66 2.98 -4 4 C-5.65 3.67 -7.3 3.34 -9 3 C-6.40821726 0.40821726 -3.54324677 -1.77162338 0 0 Z " fill="#0F0D1B" transform="translate(210,285)"/>
</svg>
